  999
file created by gear template generator
  0
SECTION
  2
HEADER
  9
$ACADVER
  1
AC1006
  9
$INSBASE
  10
0.0
  20
0.0
  30
0.0
  9
$EXTMIN
  10
0.0
  20
0.0
  9
$EXTMAX
  10
10000.0
  20
10000.0
  0
ENDSEC
  0
SECTION
  2
ENTITIES
  0
LINE
  8
0
  10
63.12625
  20
32.07218
  30
0
  11
63.12625
  21
32.07218
  31
0
  0
LINE
  8
0
  10
63.12625
  20
32.07218
  30
0
  11
63.22527
  21
31.68277
  31
0
  0
LINE
  8
0
  10
63.22527
  20
31.68277
  30
0
  11
63.34161
  21
31.52609
  31
0
  0
LINE
  8
0
  10
63.34161
  20
31.52609
  30
0
  11
63.46118
  21
31.41066
  31
0
  0
LINE
  8
0
  10
63.46118
  20
31.41066
  30
0
  11
63.5826
  21
31.31779
  31
0
  0
LINE
  8
0
  10
63.5826
  20
31.31779
  30
0
  11
63.8231
  21
31.11585
  31
0
  0
LINE
  8
0
  10
63.8231
  20
31.11585
  30
0
  11
64.07805
  21
31.05798
  31
0
  0
LINE
  8
0
  10
64.07805
  20
31.05798
  30
0
  11
64.58315
  21
30.89871
  31
0
  0
LINE
  8
0
  10
64.58315
  20
30.89871
  30
0
  11
65.08326
  21
30.69831
  31
0
  0
LINE
  8
0
  10
65.08326
  20
30.69831
  30
0
  11
65.57876
  21
30.46455
  31
0
  0
LINE
  8
0
  10
65.57876
  20
30.46455
  30
0
  11
66.06963
  21
30.20137
  31
0
  0
LINE
  8
0
  10
66.06963
  20
30.20137
  30
0
  11
66.55568
  21
29.91126
  31
0
  0
LINE
  8
0
  10
66.55568
  20
29.91126
  30
0
  11
67.03666
  21
29.59592
  31
0
  0
LINE
  8
0
  10
67.03666
  20
29.59592
  30
0
  11
67.51225
  21
29.25663
  31
0
  0
LINE
  8
0
  10
67.51225
  20
29.25663
  30
0
  11
67.98213
  21
28.8944
  31
0
  0
LINE
  8
0
  10
67.98213
  20
28.8944
  30
0
  11
67.70091
  21
27.33864
  31
0
  0
LINE
  8
0
  10
67.70091
  20
27.33864
  30
0
  11
67.13396
  21
27.16383
  31
0
  0
LINE
  8
0
  10
67.13396
  20
27.16383
  30
0
  11
66.56968
  21
27.01251
  31
0
  0
LINE
  8
0
  10
66.56968
  20
27.01251
  30
0
  11
66.00875
  21
26.88551
  31
0
  0
LINE
  8
0
  10
66.00875
  20
26.88551
  30
0
  11
65.45189
  21
26.78391
  31
0
  0
LINE
  8
0
  10
65.45189
  20
26.78391
  30
0
  11
64.89995
  21
26.70923
  31
0
  0
LINE
  8
0
  10
64.89995
  20
26.70923
  30
0
  11
64.35397
  21
26.66372
  31
0
  0
LINE
  8
0
  10
64.35397
  20
26.66372
  30
0
  11
63.81535
  21
26.65109
  31
0
  0
LINE
  8
0
  10
63.81535
  20
26.65109
  30
0
  11
63.28645
  21
26.67873
  31
0
  0
LINE
  8
0
  10
63.28645
  20
26.67873
  30
0
  11
63.02738
  21
26.71377
  31
0
  0
LINE
  8
0
  10
63.02738
  20
26.71377
  30
0
  11
62.7314
  21
26.60881
  31
0
  0
LINE
  8
0
  10
62.7314
  20
26.60881
  30
0
  11
62.58515
  21
26.56432
  31
0
  0
LINE
  8
0
  10
62.58515
  20
26.56432
  30
0
  11
62.43274
  21
26.49805
  31
0
  0
LINE
  8
0
  10
62.43274
  20
26.49805
  30
0
  11
62.26892
  21
26.39201
  31
0
  0
LINE
  8
0
  10
62.26892
  20
26.39201
  30
0
  11
62.03983
  21
26.06192
  31
0
  0
LINE
  8
0
  10
62.03983
  20
26.06192
  30
0
  11
61.77692
  21
25.21095
  31
0
  0
LINE
  8
0
  10
61.77692
  20
25.21095
  30
0
  11
61.77987
  21
24.80916
  31
0
  0
LINE
  8
0
  10
61.77987
  20
24.80916
  30
0
  11
61.85533
  21
24.62919
  31
0
  0
LINE
  8
0
  10
61.85533
  20
24.62919
  30
0
  11
61.9438
  21
24.4885
  31
0
  0
LINE
  8
0
  10
61.9438
  20
24.4885
  30
0
  11
62.03947
  21
24.36927
  31
0
  0
LINE
  8
0
  10
62.03947
  20
24.36927
  30
0
  11
62.22465
  21
24.11564
  31
0
  0
LINE
  8
0
  10
62.22465
  20
24.11564
  30
0
  11
62.45834
  21
23.99844
  31
0
  0
LINE
  8
0
  10
62.45834
  20
23.99844
  30
0
  11
62.91065
  21
23.72293
  31
0
  0
LINE
  8
0
  10
62.91065
  20
23.72293
  30
0
  11
63.34827
  21
23.40867
  31
0
  0
LINE
  8
0
  10
63.34827
  20
23.40867
  30
0
  11
63.77343
  21
23.06311
  31
0
  0
LINE
  8
0
  10
63.77343
  20
23.06311
  30
0
  11
64.18705
  21
22.69011
  31
0
  0
LINE
  8
0
  10
64.18705
  20
22.69011
  30
0
  11
64.58955
  21
22.29211
  31
0
  0
LINE
  8
0
  10
64.58955
  20
22.29211
  30
0
  11
64.98109
  21
21.87082
  31
0
  0
LINE
  8
0
  10
64.98109
  20
21.87082
  30
0
  11
65.36167
  21
21.42758
  31
0
  0
LINE
  8
0
  10
65.36167
  20
21.42758
  30
0
  11
65.7312
  21
20.96343
  31
0
  0
LINE
  8
0
  10
65.7312
  20
20.96343
  30
0
  11
65.08584
  21
19.52017
  31
0
  0
LINE
  8
0
  10
65.08584
  20
19.52017
  30
0
  11
64.49352
  21
19.48612
  31
0
  0
LINE
  8
0
  10
64.49352
  20
19.48612
  30
0
  11
63.90943
  21
19.47424
  31
0
  0
LINE
  8
0
  10
63.90943
  20
19.47424
  30
0
  11
63.3344
  21
19.48517
  31
0
  0
LINE
  8
0
  10
63.3344
  20
19.48517
  30
0
  11
62.76941
  21
19.51979
  31
0
  0
LINE
  8
0
  10
62.76941
  20
19.51979
  30
0
  11
62.21564
  21
19.57937
  31
0
  0
LINE
  8
0
  10
62.21564
  20
19.57937
  30
0
  11
61.67463
  21
19.66585
  31
0
  0
LINE
  8
0
  10
61.67463
  20
19.66585
  30
0
  11
61.14864
  21
19.78247
  31
0
  0
LINE
  8
0
  10
61.14864
  20
19.78247
  30
0
  11
60.64173
  21
19.93588
  31
0
  0
LINE
  8
0
  10
60.64173
  20
19.93588
  30
0
  11
60.39857
  21
20.03191
  31
0
  0
LINE
  8
0
  10
60.39857
  20
20.03191
  30
0
  11
60.08607
  21
20.00083
  31
0
  0
LINE
  8
0
  10
60.08607
  20
20.00083
  30
0
  11
59.93343
  21
19.99263
  31
0
  0
LINE
  8
0
  10
59.93343
  20
19.99263
  30
0
  11
59.76958
  21
19.96476
  31
0
  0
LINE
  8
0
  10
59.76958
  20
19.96476
  30
0
  11
59.58514
  21
19.90101
  31
0
  0
LINE
  8
0
  10
59.58514
  20
19.90101
  30
0
  11
59.28372
  21
19.63533
  31
0
  0
LINE
  8
0
  10
59.28372
  20
19.63533
  30
0
  11
58.82479
  21
18.87201
  31
0
  0
LINE
  8
0
  10
58.82479
  20
18.87201
  30
0
  11
58.73151
  21
18.48119
  31
0
  0
LINE
  8
0
  10
58.73151
  20
18.48119
  30
0
  11
58.76171
  21
18.2884
  31
0
  0
LINE
  8
0
  10
58.76171
  20
18.2884
  30
0
  11
58.81394
  21
18.13062
  31
0
  0
LINE
  8
0
  10
58.81394
  20
18.13062
  30
0
  11
58.87829
  21
17.99196
  31
0
  0
LINE
  8
0
  10
58.87829
  20
17.99196
  30
0
  11
58.9974
  21
17.70139
  31
0
  0
LINE
  8
0
  10
58.9974
  20
17.70139
  30
0
  11
59.19625
  21
17.53167
  31
0
  0
LINE
  8
0
  10
59.19625
  20
17.53167
  30
0
  11
59.56948
  21
17.15591
  31
0
  0
LINE
  8
0
  10
59.56948
  20
17.15591
  30
0
  11
59.91918
  21
16.74605
  31
0
  0
LINE
  8
0
  10
59.91918
  20
16.74605
  30
0
  11
60.24929
  21
16.30879
  31
0
  0
LINE
  8
0
  10
60.24929
  20
16.30879
  30
0
  11
60.56162
  21
15.84764
  31
0
  0
LINE
  8
0
  10
60.56162
  20
15.84764
  30
0
  11
60.85717
  21
15.36488
  31
0
  0
LINE
  8
0
  10
60.85717
  20
15.36488
  30
0
  11
61.13651
  21
14.86214
  31
0
  0
LINE
  8
0
  10
61.13651
  20
14.86214
  30
0
  11
61.39996
  21
14.3407
  31
0
  0
LINE
  8
0
  10
61.39996
  20
14.3407
  30
0
  11
61.64768
  21
13.80159
  31
0
  0
LINE
  8
0
  10
61.64768
  20
13.80159
  30
0
  11
60.67567
  21
12.55472
  31
0
  0
LINE
  8
0
  10
60.67567
  20
12.55472
  30
0
  11
60.09242
  21
12.66341
  31
0
  0
LINE
  8
0
  10
60.09242
  20
12.66341
  30
0
  11
59.52246
  21
12.79166
  31
0
  0
LINE
  8
0
  10
59.52246
  20
12.79166
  30
0
  11
58.96675
  21
12.93989
  31
0
  0
LINE
  8
0
  10
58.96675
  20
12.93989
  30
0
  11
58.42646
  21
13.10871
  31
0
  0
LINE
  8
0
  10
58.42646
  20
13.10871
  30
0
  11
57.90304
  21
13.29908
  31
0
  0
LINE
  8
0
  10
57.90304
  20
13.29908
  30
0
  11
57.39845
  21
13.51252
  31
0
  0
LINE
  8
0
  10
57.39845
  20
13.51252
  30
0
  11
56.91565
  21
13.75164
  31
0
  0
LINE
  8
0
  10
56.91565
  20
13.75164
  30
0
  11
56.46018
  21
14.0219
  31
0
  0
LINE
  8
0
  10
56.46018
  20
14.0219
  30
0
  11
56.24707
  21
14.17333
  31
0
  0
LINE
  8
0
  10
56.24707
  20
14.17333
  30
0
  11
55.93622
  21
14.21794
  31
0
  0
LINE
  8
0
  10
55.93622
  20
14.21794
  30
0
  11
55.78605
  21
14.24651
  31
0
  0
LINE
  8
0
  10
55.78605
  20
14.24651
  30
0
  11
55.6203
  21
14.25866
  31
0
  0
LINE
  8
0
  10
55.6203
  20
14.25866
  30
0
  11
55.42596
  21
14.2409
  31
0
  0
LINE
  8
0
  10
55.42596
  20
14.2409
  30
0
  11
55.06971
  21
14.05508
  31
0
  0
LINE
  8
0
  10
55.06971
  20
14.05508
  30
0
  11
54.44145
  21
13.42377
  31
0
  0
LINE
  8
0
  10
54.44145
  20
13.42377
  30
0
  11
54.25735
  21
13.06663
  31
0
  0
LINE
  8
0
  10
54.25735
  20
13.06663
  30
0
  11
54.24053
  21
12.87221
  31
0
  0
LINE
  8
0
  10
54.24053
  20
12.87221
  30
0
  11
54.25348
  21
12.70652
  31
0
  0
LINE
  8
0
  10
54.25348
  20
12.70652
  30
0
  11
54.28278
  21
12.55648
  31
0
  0
LINE
  8
0
  10
54.28278
  20
12.55648
  30
0
  11
54.32889
  21
12.24585
  31
0
  0
LINE
  8
0
  10
54.32889
  20
12.24585
  30
0
  11
54.48134
  21
12.03347
  31
0
  0
LINE
  8
0
  10
54.48134
  20
12.03347
  30
0
  11
54.7538
  21
11.57932
  31
0
  0
LINE
  8
0
  10
54.7538
  20
11.57932
  30
0
  11
54.99525
  21
11.09768
  31
0
  0
LINE
  8
0
  10
54.99525
  20
11.09768
  30
0
  11
55.21113
  21
10.59412
  31
0
  0
LINE
  8
0
  10
55.21113
  20
10.59412
  30
0
  11
55.40403
  21
10.07163
  31
0
  0
LINE
  8
0
  10
55.40403
  20
10.07163
  30
0
  11
55.57546
  21
9.53216
  31
0
  0
LINE
  8
0
  10
55.57546
  20
9.53216
  30
0
  11
55.72637
  21
8.97718
  31
0
  0
LINE
  8
0
  10
55.72637
  20
8.97718
  30
0
  11
55.85737
  21
8.40784
  31
0
  0
LINE
  8
0
  10
55.85737
  20
8.40784
  30
0
  11
55.96887
  21
7.82512
  31
0
  0
LINE
  8
0
  10
55.96887
  20
7.82512
  30
0
  11
54.72672
  21
6.8471
  31
0
  0
LINE
  8
0
  10
54.72672
  20
6.8471
  30
0
  11
54.18642
  21
7.09221
  31
0
  0
LINE
  8
0
  10
54.18642
  20
7.09221
  30
0
  11
53.66372
  21
7.35313
  31
0
  0
LINE
  8
0
  10
53.66372
  20
7.35313
  30
0
  11
53.15963
  21
7.63004
  31
0
  0
LINE
  8
0
  10
53.15963
  20
7.63004
  30
0
  11
52.67544
  21
7.92326
  31
0
  0
LINE
  8
0
  10
52.67544
  20
7.92326
  30
0
  11
52.21279
  21
8.23336
  31
0
  0
LINE
  8
0
  10
52.21279
  20
8.23336
  30
0
  11
51.77394
  21
8.56135
  31
0
  0
LINE
  8
0
  10
51.77394
  20
8.56135
  30
0
  11
51.3624
  21
8.90907
  31
0
  0
LINE
  8
0
  10
51.3624
  20
8.90907
  30
0
  11
50.98484
  21
9.28048
  31
0
  0
LINE
  8
0
  10
50.98484
  20
9.28048
  30
0
  11
50.81416
  21
9.4785
  31
0
  0
LINE
  8
0
  10
50.81416
  20
9.4785
  30
0
  11
50.52302
  21
9.59621
  31
0
  0
LINE
  8
0
  10
50.52302
  20
9.59621
  30
0
  11
50.38404
  21
9.65989
  31
0
  0
LINE
  8
0
  10
50.38404
  20
9.65989
  30
0
  11
50.22602
  21
9.71135
  31
0
  0
LINE
  8
0
  10
50.22602
  20
9.71135
  30
0
  11
50.03308
  21
9.74062
  31
0
  0
LINE
  8
0
  10
50.03308
  20
9.74062
  30
0
  11
49.64271
  21
9.64545
  31
0
  0
LINE
  8
0
  10
49.64271
  20
9.64545
  30
0
  11
48.88162
  21
9.18284
  31
0
  0
LINE
  8
0
  10
48.88162
  20
9.18284
  30
0
  11
48.6174
  21
8.88013
  31
0
  0
LINE
  8
0
  10
48.6174
  20
8.88013
  30
0
  11
48.55454
  21
8.69539
  31
0
  0
LINE
  8
0
  10
48.55454
  20
8.69539
  30
0
  11
48.52747
  21
8.53141
  31
0
  0
LINE
  8
0
  10
48.52747
  20
8.53141
  30
0
  11
48.52001
  21
8.37873
  31
0
  0
LINE
  8
0
  10
48.52001
  20
8.37873
  30
0
  11
48.49044
  21
8.06608
  31
0
  0
LINE
  8
0
  10
48.49044
  20
8.06608
  30
0
  11
48.58764
  21
7.82339
  31
0
  0
LINE
  8
0
  10
48.58764
  20
7.82339
  30
0
  11
48.7435
  21
7.31723
  31
0
  0
LINE
  8
0
  10
48.7435
  20
7.31723
  30
0
  11
48.86267
  21
6.7918
  31
0
  0
LINE
  8
0
  10
48.86267
  20
6.7918
  30
0
  11
48.95176
  21
6.25122
  31
0
  0
LINE
  8
0
  10
48.95176
  20
6.25122
  30
0
  11
49.01401
  21
5.69775
  31
0
  0
LINE
  8
0
  10
49.01401
  20
5.69775
  30
0
  11
49.05136
  21
5.13293
  31
0
  0
LINE
  8
0
  10
49.05136
  20
5.13293
  30
0
  11
49.06507
  21
4.55796
  31
0
  0
LINE
  8
0
  10
49.06507
  20
4.55796
  30
0
  11
49.05601
  21
3.97382
  31
0
  0
LINE
  8
0
  10
49.05601
  20
3.97382
  30
0
  11
49.02482
  21
3.38134
  31
0
  0
LINE
  8
0
  10
49.02482
  20
3.38134
  30
0
  11
47.5847
  21
2.72901
  31
0
  0
LINE
  8
0
  10
47.5847
  20
2.72901
  30
0
  11
47.11877
  21
3.0963
  31
0
  0
LINE
  8
0
  10
47.11877
  20
3.0963
  30
0
  11
46.67369
  21
3.47473
  31
0
  0
LINE
  8
0
  10
46.67369
  20
3.47473
  30
0
  11
46.25052
  21
3.86423
  31
0
  0
LINE
  8
0
  10
46.25052
  20
3.86423
  30
0
  11
45.85058
  21
4.2648
  31
0
  0
LINE
  8
0
  10
45.85058
  20
4.2648
  30
0
  11
45.47558
  21
4.67661
  31
0
  0
LINE
  8
0
  10
45.47558
  20
4.67661
  30
0
  11
45.12798
  21
5.10009
  31
0
  0
LINE
  8
0
  10
45.12798
  20
5.10009
  30
0
  11
44.8116
  21
5.53619
  31
0
  0
LINE
  8
0
  10
44.8116
  20
5.53619
  30
0
  11
44.53391
  21
5.98716
  31
0
  0
LINE
  8
0
  10
44.53391
  20
5.98716
  30
0
  11
44.41558
  21
6.22028
  31
0
  0
LINE
  8
0
  10
44.41558
  20
6.22028
  30
0
  11
44.16106
  21
6.40424
  31
0
  0
LINE
  8
0
  10
44.16106
  20
6.40424
  30
0
  11
44.04137
  21
6.49933
  31
0
  0
LINE
  8
0
  10
44.04137
  20
6.49933
  30
0
  11
43.90025
  21
6.58712
  31
0
  0
LINE
  8
0
  10
43.90025
  20
6.58712
  30
0
  11
43.71992
  21
6.66171
  31
0
  0
LINE
  8
0
  10
43.71992
  20
6.66171
  30
0
  11
43.31812
  21
6.66272
  31
0
  0
LINE
  8
0
  10
43.31812
  20
6.66272
  30
0
  11
42.46844
  21
6.3957
  31
0
  0
LINE
  8
0
  10
42.46844
  20
6.3957
  30
0
  11
42.13945
  21
6.16502
  31
0
  0
LINE
  8
0
  10
42.13945
  20
6.16502
  30
0
  11
42.03421
  21
6.00068
  31
0
  0
LINE
  8
0
  10
42.03421
  20
6.00068
  30
0
  11
41.96868
  21
5.84795
  31
0
  0
LINE
  8
0
  10
41.96868
  20
5.84795
  30
0
  11
41.92489
  21
5.70149
  31
0
  0
LINE
  8
0
  10
41.92489
  20
5.70149
  30
0
  11
41.82136
  21
5.40501
  31
0
  0
LINE
  8
0
  10
41.82136
  20
5.40501
  30
0
  11
41.85766
  21
5.14611
  31
0
  0
LINE
  8
0
  10
41.85766
  20
5.14611
  30
0
  11
41.88785
  21
4.61736
  31
0
  0
LINE
  8
0
  10
41.88785
  20
4.61736
  30
0
  11
41.87782
  21
4.07868
  31
0
  0
LINE
  8
0
  10
41.87782
  20
4.07868
  30
0
  11
41.83495
  21
3.53248
  31
0
  0
LINE
  8
0
  10
41.83495
  20
3.53248
  30
0
  11
41.76294
  21
2.98019
  31
0
  0
LINE
  8
0
  10
41.76294
  20
2.98019
  30
0
  11
41.66403
  21
2.42285
  31
0
  0
LINE
  8
0
  10
41.66403
  20
2.42285
  30
0
  11
41.53974
  21
1.86131
  31
0
  0
LINE
  8
0
  10
41.53974
  20
1.86131
  30
0
  11
41.39116
  21
1.2963
  31
0
  0
LINE
  8
0
  10
41.39116
  20
1.2963
  30
0
  11
41.21909
  21
0.72851
  31
0
  0
LINE
  8
0
  10
41.21909
  20
0.72851
  30
0
  11
39.6647
  21
0.43978
  31
0
  0
LINE
  8
0
  10
39.6647
  20
0.43978
  30
0
  11
39.3002
  21
0.9079
  31
0
  0
LINE
  8
0
  10
39.3002
  20
0.9079
  30
0
  11
38.95863
  21
1.38185
  31
0
  0
LINE
  8
0
  10
38.95863
  20
1.38185
  30
0
  11
38.64096
  21
1.8613
  31
0
  0
LINE
  8
0
  10
38.64096
  20
1.8613
  30
0
  11
38.3485
  21
2.34594
  31
0
  0
LINE
  8
0
  10
38.3485
  20
2.34594
  30
0
  11
38.08296
  21
2.83553
  31
0
  0
LINE
  8
0
  10
38.08296
  20
2.83553
  30
0
  11
37.8468
  21
3.32989
  31
0
  0
LINE
  8
0
  10
37.8468
  20
3.32989
  30
0
  11
37.64398
  21
3.82903
  31
0
  0
LINE
  8
0
  10
37.64398
  20
3.82903
  30
0
  11
37.48228
  21
4.33336
  31
0
  0
LINE
  8
0
  10
37.48228
  20
4.33336
  30
0
  11
37.42318
  21
4.58802
  31
0
  0
LINE
  8
0
  10
37.42318
  20
4.58802
  30
0
  11
37.22008
  21
4.82755
  31
0
  0
LINE
  8
0
  10
37.22008
  20
4.82755
  30
0
  11
37.12662
  21
4.94852
  31
0
  0
LINE
  8
0
  10
37.12662
  20
4.94852
  30
0
  11
37.01061
  21
5.06752
  31
0
  0
LINE
  8
0
  10
37.01061
  20
5.06752
  30
0
  11
36.85337
  21
5.1831
  31
0
  0
LINE
  8
0
  10
36.85337
  20
5.1831
  30
0
  11
36.4635
  21
5.28024
  31
0
  0
LINE
  8
0
  10
36.4635
  20
5.28024
  30
0
  11
35.5746
  21
5.22432
  31
0
  0
LINE
  8
0
  10
35.5746
  20
5.22432
  30
0
  11
35.19997
  21
5.07908
  31
0
  0
LINE
  8
0
  10
35.19997
  20
5.07908
  30
0
  11
35.05845
  21
4.9447
  31
0
  0
LINE
  8
0
  10
35.05845
  20
4.9447
  30
0
  11
34.95828
  21
4.8121
  31
0
  0
LINE
  8
0
  10
34.95828
  20
4.8121
  30
0
  11
34.88071
  21
4.68036
  31
0
  0
LINE
  8
0
  10
34.88071
  20
4.68036
  30
0
  11
34.70924
  21
4.41728
  31
0
  0
LINE
  8
0
  10
34.70924
  20
4.41728
  30
0
  11
34.68252
  21
4.15721
  31
0
  0
LINE
  8
0
  10
34.68252
  20
4.15721
  30
0
  11
34.5853
  21
3.6366
  31
0
  0
LINE
  8
0
  10
34.5853
  20
3.6366
  30
0
  11
34.44664
  21
3.11597
  31
0
  0
LINE
  8
0
  10
34.44664
  20
3.11597
  30
0
  11
34.27431
  21
2.59591
  31
0
  0
LINE
  8
0
  10
34.27431
  20
2.59591
  30
0
  11
34.07222
  21
2.0769
  31
0
  0
LINE
  8
0
  10
34.07222
  20
2.0769
  30
0
  11
33.84281
  21
1.55942
  31
0
  0
LINE
  8
0
  10
33.84281
  20
1.55942
  30
0
  11
33.58774
  21
1.04394
  31
0
  0
LINE
  8
0
  10
33.58774
  20
1.04394
  30
0
  11
33.30826
  21
0.53092
  31
0
  0
LINE
  8
0
  10
33.30826
  20
0.53092
  30
0
  11
33.00531
  21
0.0208
  31
0
  0
LINE
  8
0
  10
33.00531
  20
0.0208
  30
0
  11
31.42699
  21
0.11245
  31
0
  0
LINE
  8
0
  10
31.42699
  20
0.11245
  30
0
  11
31.18511
  21
0.65419
  31
0
  0
LINE
  8
0
  10
31.18511
  20
0.65419
  30
0
  11
30.96688
  21
1.19612
  31
0
  0
LINE
  8
0
  10
30.96688
  20
1.19612
  30
0
  11
30.77319
  21
1.73766
  31
0
  0
LINE
  8
0
  10
30.77319
  20
1.73766
  30
0
  11
30.60521
  21
2.27821
  31
0
  0
LINE
  8
0
  10
30.60521
  20
2.27821
  30
0
  11
30.46455
  21
2.81712
  31
0
  0
LINE
  8
0
  10
30.46455
  20
2.81712
  30
0
  11
30.35356
  21
3.35363
  31
0
  0
LINE
  8
0
  10
30.35356
  20
3.35363
  30
0
  11
30.27609
  21
3.88681
  31
0
  0
LINE
  8
0
  10
30.27609
  20
3.88681
  30
0
  11
30.23978
  21
4.41518
  31
0
  0
LINE
  8
0
  10
30.23978
  20
4.41518
  30
0
  11
30.24334
  21
4.67658
  31
0
  0
LINE
  8
0
  10
30.24334
  20
4.67658
  30
0
  11
30.10347
  21
4.95775
  31
0
  0
LINE
  8
0
  10
30.10347
  20
4.95775
  30
0
  11
30.04167
  21
5.09757
  31
0
  0
LINE
  8
0
  10
30.04167
  20
5.09757
  30
0
  11
29.95752
  21
5.24088
  31
0
  0
LINE
  8
0
  10
29.95752
  20
5.24088
  30
0
  11
29.83251
  21
5.39073
  31
0
  0
LINE
  8
0
  10
29.83251
  20
5.39073
  30
0
  11
29.47721
  21
5.57836
  31
0
  0
LINE
  8
0
  10
29.47721
  20
5.57836
  30
0
  11
28.60075
  21
5.73678
  31
0
  0
LINE
  8
0
  10
28.60075
  20
5.73678
  30
0
  11
28.20225
  21
5.68542
  31
0
  0
LINE
  8
0
  10
28.20225
  20
5.68542
  30
0
  11
28.03269
  21
5.58882
  31
0
  0
LINE
  8
0
  10
28.03269
  20
5.58882
  30
0
  11
27.90369
  21
5.48403
  31
0
  0
LINE
  8
0
  10
27.90369
  20
5.48403
  30
0
  11
27.79686
  21
5.37469
  31
0
  0
LINE
  8
0
  10
27.79686
  20
5.37469
  30
0
  11
27.5674
  21
5.16029
  31
0
  0
LINE
  8
0
  10
27.5674
  20
5.16029
  30
0
  11
27.47922
  21
4.91418
  31
0
  0
LINE
  8
0
  10
27.47922
  20
4.91418
  30
0
  11
27.26024
  21
4.43195
  31
0
  0
LINE
  8
0
  10
27.26024
  20
4.43195
  30
0
  11
27.00102
  21
3.95964
  31
0
  0
LINE
  8
0
  10
27.00102
  20
3.95964
  30
0
  11
26.70923
  21
3.49593
  31
0
  0
LINE
  8
0
  10
26.70923
  20
3.49593
  30
0
  11
26.38881
  21
3.04036
  31
0
  0
LINE
  8
0
  10
26.38881
  20
3.04036
  30
0
  11
26.04222
  21
2.59283
  31
0
  0
LINE
  8
0
  10
26.04222
  20
2.59283
  30
0
  11
25.6712
  21
2.15337
  31
0
  0
LINE
  8
0
  10
25.6712
  20
2.15337
  30
0
  11
25.27706
  21
1.72213
  31
0
  0
LINE
  8
0
  10
25.27706
  20
1.72213
  30
0
  11
24.86084
  21
1.29934
  31
0
  0
LINE
  8
0
  10
24.86084
  20
1.29934
  30
0
  11
23.35032
  21
1.76604
  31
0
  0
LINE
  8
0
  10
23.35032
  20
1.76604
  30
0
  11
23.24512
  21
2.34993
  31
0
  0
LINE
  8
0
  10
23.24512
  20
2.34993
  30
0
  11
23.16292
  21
2.92833
  31
0
  0
LINE
  8
0
  10
23.16292
  20
2.92833
  30
0
  11
23.10446
  21
3.50049
  31
0
  0
LINE
  8
0
  10
23.10446
  20
3.50049
  30
0
  11
23.07072
  21
4.06553
  31
0
  0
LINE
  8
0
  10
23.07072
  20
4.06553
  30
0
  11
23.06311
  21
4.62245
  31
0
  0
LINE
  8
0
  10
23.06311
  20
4.62245
  30
0
  11
23.08375
  21
5.16993
  31
0
  0
LINE
  8
0
  10
23.08375
  20
5.16993
  30
0
  11
23.13613
  21
5.70615
  31
0
  0
LINE
  8
0
  10
23.13613
  20
5.70615
  30
0
  11
23.22732
  21
6.22786
  31
0
  0
LINE
  8
0
  10
23.22732
  20
6.22786
  30
0
  11
23.29333
  21
6.48082
  31
0
  0
LINE
  8
0
  10
23.29333
  20
6.48082
  30
0
  11
23.22481
  21
6.78729
  31
0
  0
LINE
  8
0
  10
23.22481
  20
6.78729
  30
0
  11
23.19827
  21
6.93783
  31
0
  0
LINE
  8
0
  10
23.19827
  20
6.93783
  30
0
  11
23.15086
  21
7.09712
  31
0
  0
LINE
  8
0
  10
23.15086
  20
7.09712
  30
0
  11
23.06534
  21
7.27253
  31
0
  0
LINE
  8
0
  10
23.06534
  20
7.27253
  30
0
  11
22.76527
  21
7.53974
  31
0
  0
LINE
  8
0
  10
22.76527
  20
7.53974
  30
0
  11
21.9522
  21
7.90331
  31
0
  0
LINE
  8
0
  10
21.9522
  20
7.90331
  30
0
  11
21.55298
  21
7.9488
  31
0
  0
LINE
  8
0
  10
21.55298
  20
7.9488
  30
0
  11
21.36523
  21
7.89559
  31
0
  0
LINE
  8
0
  10
21.36523
  20
7.89559
  30
0
  11
21.2149
  21
7.82472
  31
0
  0
LINE
  8
0
  10
21.2149
  20
7.82472
  30
0
  11
21.08501
  21
7.74412
  31
0
  0
LINE
  8
0
  10
21.08501
  20
7.74412
  30
0
  11
20.81091
  21
7.59086
  31
0
  0
LINE
  8
0
  10
20.81091
  20
7.59086
  30
0
  11
20.66639
  21
7.373
  31
0
  0
LINE
  8
0
  10
20.66639
  20
7.373
  30
0
  11
20.33837
  21
6.9572
  31
0
  0
LINE
  8
0
  10
20.33837
  20
6.9572
  30
0
  11
19.97365
  21
6.56065
  31
0
  0
LINE
  8
0
  10
19.97365
  20
6.56065
  30
0
  11
19.57937
  21
6.18024
  31
0
  0
LINE
  8
0
  10
19.57937
  20
6.18024
  30
0
  11
19.15923
  21
5.8146
  31
0
  0
LINE
  8
0
  10
19.15923
  20
5.8146
  30
0
  11
18.71561
  21
5.46301
  31
0
  0
LINE
  8
0
  10
18.71561
  20
5.46301
  30
0
  11
18.2502
  21
5.12511
  31
0
  0
LINE
  8
0
  10
18.2502
  20
5.12511
  30
0
  11
17.76432
  21
4.80073
  31
0
  0
LINE
  8
0
  10
17.76432
  20
4.80073
  30
0
  11
17.25901
  21
4.48983
  31
0
  0
LINE
  8
0
  10
17.25901
  20
4.48983
  30
0
  11
15.90407
  21
5.30446
  31
0
  0
LINE
  8
0
  10
15.90407
  20
5.30446
  30
0
  11
15.94166
  21
5.89656
  31
0
  0
LINE
  8
0
  10
15.94166
  20
5.89656
  30
0
  11
16.00027
  21
6.47782
  31
0
  0
LINE
  8
0
  10
16.00027
  20
6.47782
  30
0
  11
16.08043
  21
7.04734
  31
0
  0
LINE
  8
0
  10
16.08043
  20
7.04734
  30
0
  11
16.1829
  21
7.60404
  31
0
  0
LINE
  8
0
  10
16.1829
  20
7.60404
  30
0
  11
16.30879
  21
8.14659
  31
0
  0
LINE
  8
0
  10
16.30879
  20
8.14659
  30
0
  11
16.45985
  21
8.67323
  31
0
  0
LINE
  8
0
  10
16.45985
  20
8.67323
  30
0
  11
16.63903
  21
9.18134
  31
0
  0
LINE
  8
0
  10
16.63903
  20
9.18134
  30
0
  11
16.85242
  21
9.66606
  31
0
  0
LINE
  8
0
  10
16.85242
  20
9.66606
  30
0
  11
16.97706
  21
9.89587
  31
0
  0
LINE
  8
0
  10
16.97706
  20
9.89587
  30
0
  11
16.98387
  21
10.20983
  31
0
  0
LINE
  8
0
  10
16.98387
  20
10.20983
  30
0
  11
16.99413
  21
10.36236
  31
0
  0
LINE
  8
0
  10
16.99413
  20
10.36236
  30
0
  11
16.98622
  21
10.52836
  31
0
  0
LINE
  8
0
  10
16.98622
  20
10.52836
  30
0
  11
16.94516
  21
10.71914
  31
0
  0
LINE
  8
0
  10
16.94516
  20
10.71914
  30
0
  11
16.71775
  21
11.05039
  31
0
  0
LINE
  8
0
  10
16.71775
  20
11.05039
  30
0
  11
16.01532
  21
11.59798
  31
0
  0
LINE
  8
0
  10
16.01532
  20
11.59798
  30
0
  11
15.63859
  21
11.73769
  31
0
  0
LINE
  8
0
  10
15.63859
  20
11.73769
  30
0
  11
15.44356
  21
11.73095
  31
0
  0
LINE
  8
0
  10
15.44356
  20
11.73095
  30
0
  11
15.28064
  21
11.69812
  31
0
  0
LINE
  8
0
  10
15.28064
  20
11.69812
  30
0
  11
15.13523
  21
11.65095
  31
0
  0
LINE
  8
0
  10
15.13523
  20
11.65095
  30
0
  11
14.83242
  21
11.56774
  31
0
  0
LINE
  8
0
  10
14.83242
  20
11.56774
  30
0
  11
14.63997
  21
11.3908
  31
0
  0
LINE
  8
0
  10
14.63997
  20
11.3908
  30
0
  11
14.22197
  21
11.06558
  31
0
  0
LINE
  8
0
  10
14.22197
  20
11.06558
  30
0
  11
13.77294
  21
10.76783
  31
0
  0
LINE
  8
0
  10
13.77294
  20
10.76783
  30
0
  11
13.29908
  21
10.49284
  31
0
  0
LINE
  8
0
  10
13.29908
  20
10.49284
  30
0
  11
12.80365
  21
10.23836
  31
0
  0
LINE
  8
0
  10
12.80365
  20
10.23836
  30
0
  11
12.28878
  21
10.00316
  31
0
  0
LINE
  8
0
  10
12.28878
  20
10.00316
  30
0
  11
11.75603
  21
9.78645
  31
0
  0
LINE
  8
0
  10
11.75603
  20
9.78645
  30
0
  11
11.20664
  21
9.58778
  31
0
  0
LINE
  8
0
  10
11.20664
  20
9.58778
  30
0
  11
10.64161
  21
9.40685
  31
0
  0
LINE
  8
0
  10
10.64161
  20
9.40685
  30
0
  11
9.52099
  21
10.52206
  31
0
  0
LINE
  8
0
  10
9.52099
  20
10.52206
  30
0
  11
9.69919
  21
11.08796
  31
0
  0
LINE
  8
0
  10
9.69919
  20
11.08796
  30
0
  11
9.8952
  21
11.63831
  31
0
  0
LINE
  8
0
  10
9.8952
  20
11.63831
  30
0
  11
10.10933
  21
12.1721
  31
0
  0
LINE
  8
0
  10
10.10933
  20
12.1721
  30
0
  11
10.34205
  21
12.6881
  31
0
  0
LINE
  8
0
  10
10.34205
  20
12.6881
  30
0
  11
10.59412
  21
13.18475
  31
0
  0
LINE
  8
0
  10
10.59412
  20
13.18475
  30
0
  11
10.86683
  21
13.65994
  31
0
  0
LINE
  8
0
  10
10.86683
  20
13.65994
  30
0
  11
11.1624
  21
14.1104
  31
0
  0
LINE
  8
0
  10
11.1624
  20
14.1104
  30
0
  11
11.48559
  21
14.52997
  31
0
  0
LINE
  8
0
  10
11.48559
  20
14.52997
  30
0
  11
11.6616
  21
14.72327
  31
0
  0
LINE
  8
0
  10
11.6616
  20
14.72327
  30
0
  11
11.74335
  21
15.02648
  31
0
  0
LINE
  8
0
  10
11.74335
  20
15.02648
  30
0
  11
11.78982
  21
15.17212
  31
0
  0
LINE
  8
0
  10
11.78982
  20
15.17212
  30
0
  11
11.82186
  21
15.33519
  31
0
  0
LINE
  8
0
  10
11.82186
  20
15.33519
  30
0
  11
11.82765
  21
15.53025
  31
0
  0
LINE
  8
0
  10
11.82765
  20
15.53025
  30
0
  11
11.68613
  21
15.9063
  31
0
  0
LINE
  8
0
  10
11.68613
  20
15.9063
  30
0
  11
11.13515
  21
16.60608
  31
0
  0
LINE
  8
0
  10
11.13515
  20
16.60608
  30
0
  11
10.8028
  21
16.83189
  31
0
  0
LINE
  8
0
  10
10.8028
  20
16.83189
  30
0
  11
10.61183
  21
16.87202
  31
0
  0
LINE
  8
0
  10
10.61183
  20
16.87202
  30
0
  11
10.44578
  21
16.87913
  31
0
  0
LINE
  8
0
  10
10.44578
  20
16.87913
  30
0
  11
10.29331
  21
16.86813
  31
0
  0
LINE
  8
0
  10
10.29331
  20
16.86813
  30
0
  11
9.97939
  21
16.8598
  31
0
  0
LINE
  8
0
  10
9.97939
  20
16.8598
  30
0
  11
9.75018
  21
16.73406
  31
0
  0
LINE
  8
0
  10
9.75018
  20
16.73406
  30
0
  11
9.26649
  21
16.51833
  31
0
  0
LINE
  8
0
  10
9.26649
  20
16.51833
  30
0
  11
8.75926
  21
16.33669
  31
0
  0
LINE
  8
0
  10
8.75926
  20
16.33669
  30
0
  11
8.23336
  21
16.18309
  31
0
  0
LINE
  8
0
  10
8.23336
  20
16.18309
  30
0
  11
7.69142
  21
16.05457
  31
0
  0
LINE
  8
0
  10
7.69142
  20
16.05457
  30
0
  11
7.13523
  21
15.94942
  31
0
  0
LINE
  8
0
  10
7.13523
  20
15.94942
  30
0
  11
6.5661
  21
15.86651
  31
0
  0
LINE
  8
0
  10
6.5661
  20
15.86651
  30
0
  11
5.98513
  21
15.80508
  31
0
  0
LINE
  8
0
  10
5.98513
  20
15.80508
  30
0
  11
5.39321
  21
15.76463
  31
0
  0
LINE
  8
0
  10
5.39321
  20
15.76463
  30
0
  11
4.57205
  21
17.11562
  31
0
  0
LINE
  8
0
  10
4.57205
  20
17.11562
  30
0
  11
4.8805
  21
17.62243
  31
0
  0
LINE
  8
0
  10
4.8805
  20
17.62243
  30
0
  11
5.20252
  21
18.10988
  31
0
  0
LINE
  8
0
  10
5.20252
  20
18.10988
  30
0
  11
5.53817
  21
18.57691
  31
0
  0
LINE
  8
0
  10
5.53817
  20
18.57691
  30
0
  11
5.88761
  21
19.02222
  31
0
  0
LINE
  8
0
  10
5.88761
  20
19.02222
  30
0
  11
6.25122
  21
19.44412
  31
0
  0
LINE
  8
0
  10
6.25122
  20
19.44412
  30
0
  11
6.62972
  21
19.84024
  31
0
  0
LINE
  8
0
  10
6.62972
  20
19.84024
  30
0
  11
7.0245
  21
20.20687
  31
0
  0
LINE
  8
0
  10
7.0245
  20
20.20687
  30
0
  11
7.43872
  21
20.5369
  31
0
  0
LINE
  8
0
  10
7.43872
  20
20.5369
  30
0
  11
7.65587
  21
20.68247
  31
0
  0
LINE
  8
0
  10
7.65587
  20
20.68247
  30
0
  11
7.80781
  21
20.9573
  31
0
  0
LINE
  8
0
  10
7.80781
  20
20.9573
  30
0
  11
7.88778
  21
21.08759
  31
0
  0
LINE
  8
0
  10
7.88778
  20
21.08759
  30
0
  11
7.95792
  21
21.23826
  31
0
  0
LINE
  8
0
  10
7.95792
  20
21.23826
  30
0
  11
8.01022
  21
21.42626
  31
0
  0
LINE
  8
0
  10
8.01022
  20
21.42626
  30
0
  11
7.9628
  21
21.82525
  31
0
  0
LINE
  8
0
  10
7.9628
  20
21.82525
  30
0
  11
7.5953
  21
22.63656
  31
0
  0
LINE
  8
0
  10
7.5953
  20
22.63656
  30
0
  11
7.32665
  21
22.93534
  31
0
  0
LINE
  8
0
  10
7.32665
  20
22.93534
  30
0
  11
7.15083
  21
23.02001
  31
0
  0
LINE
  8
0
  10
7.15083
  20
23.02001
  30
0
  11
6.99132
  21
23.06665
  31
0
  0
LINE
  8
0
  10
6.99132
  20
23.06665
  30
0
  11
6.84064
  21
23.09246
  31
0
  0
LINE
  8
0
  10
6.84064
  20
23.09246
  30
0
  11
6.53384
  21
23.1595
  31
0
  0
LINE
  8
0
  10
6.53384
  20
23.1595
  30
0
  11
6.28121
  21
23.09226
  31
0
  0
LINE
  8
0
  10
6.28121
  20
23.09226
  30
0
  11
5.75995
  21
22.99855
  31
0
  0
LINE
  8
0
  10
5.75995
  20
22.99855
  30
0
  11
5.22399
  21
22.94358
  31
0
  0
LINE
  8
0
  10
5.22399
  20
22.94358
  30
0
  11
4.67661
  21
22.9203
  31
0
  0
LINE
  8
0
  10
4.67661
  20
22.9203
  30
0
  11
4.11966
  21
22.92521
  31
0
  0
LINE
  8
0
  10
4.11966
  20
22.92521
  30
0
  11
3.55446
  21
22.95622
  31
0
  0
LINE
  8
0
  10
3.55446
  20
22.95622
  30
0
  11
2.98203
  21
23.01192
  31
0
  0
LINE
  8
0
  10
2.98203
  20
23.01192
  30
0
  11
2.40324
  21
23.09132
  31
0
  0
LINE
  8
0
  10
2.40324
  20
23.09132
  30
0
  11
1.81885
  21
23.19369
  31
0
  0
LINE
  8
0
  10
1.81885
  20
23.19369
  30
0
  11
1.34486
  21
24.70194
  31
0
  0
LINE
  8
0
  10
1.34486
  20
24.70194
  30
0
  11
1.76563
  21
25.12021
  31
0
  0
LINE
  8
0
  10
1.76563
  20
25.12021
  30
0
  11
2.19495
  21
25.51642
  31
0
  0
LINE
  8
0
  10
2.19495
  20
25.51642
  30
0
  11
2.63261
  21
25.88956
  31
0
  0
LINE
  8
0
  10
2.63261
  20
25.88956
  30
0
  11
3.07847
  21
26.23831
  31
0
  0
LINE
  8
0
  10
3.07847
  20
26.23831
  30
0
  11
3.53248
  21
26.56093
  31
0
  0
LINE
  8
0
  10
3.53248
  20
26.56093
  30
0
  11
3.99478
  21
26.85495
  31
0
  0
LINE
  8
0
  10
3.99478
  20
26.85495
  30
0
  11
4.46583
  21
27.11645
  31
0
  0
LINE
  8
0
  10
4.46583
  20
27.11645
  30
0
  11
4.94699
  21
27.33777
  31
0
  0
LINE
  8
0
  10
4.94699
  20
27.33777
  30
0
  11
5.19267
  21
27.42713
  31
0
  0
LINE
  8
0
  10
5.19267
  20
27.42713
  30
0
  11
5.40597
  21
27.65762
  31
0
  0
LINE
  8
0
  10
5.40597
  20
27.65762
  30
0
  11
5.51479
  21
27.76498
  31
0
  0
LINE
  8
0
  10
5.51479
  20
27.76498
  30
0
  11
5.61895
  21
27.89449
  31
0
  0
LINE
  8
0
  10
5.61895
  20
27.89449
  30
0
  11
5.71473
  21
28.06451
  31
0
  0
LINE
  8
0
  10
5.71473
  20
28.06451
  30
0
  11
5.76417
  21
28.46326
  31
0
  0
LINE
  8
0
  10
5.76417
  20
28.46326
  30
0
  11
5.60151
  21
29.33894
  31
0
  0
LINE
  8
0
  10
5.60151
  20
29.33894
  30
0
  11
5.41217
  21
29.69333
  31
0
  0
LINE
  8
0
  10
5.41217
  20
29.69333
  30
0
  11
5.26172
  21
29.81761
  31
0
  0
LINE
  8
0
  10
5.26172
  20
29.81761
  30
0
  11
5.118
  21
29.90107
  31
0
  0
LINE
  8
0
  10
5.118
  20
29.90107
  30
0
  11
4.97788
  21
29.96219
  31
0
  0
LINE
  8
0
  10
4.97788
  20
29.96219
  30
0
  11
4.69604
  21
30.10071
  31
0
  0
LINE
  8
0
  10
4.69604
  20
30.10071
  30
0
  11
4.43465
  21
30.09588
  31
0
  0
LINE
  8
0
  10
4.43465
  20
30.09588
  30
0
  11
3.90612
  21
30.12964
  31
0
  0
LINE
  8
0
  10
3.90612
  20
30.12964
  30
0
  11
3.37257
  21
30.20453
  31
0
  0
LINE
  8
0
  10
3.37257
  20
30.20453
  30
0
  11
2.83553
  21
30.31292
  31
0
  0
LINE
  8
0
  10
2.83553
  20
30.31292
  30
0
  11
2.29594
  21
30.45098
  31
0
  0
LINE
  8
0
  10
2.29594
  20
30.45098
  30
0
  11
1.75459
  21
30.61635
  31
0
  0
LINE
  8
0
  10
1.75459
  20
30.61635
  30
0
  11
1.21212
  21
30.80742
  31
0
  0
LINE
  8
0
  10
1.21212
  20
30.80742
  30
0
  11
0.66915
  21
31.02302
  31
0
  0
LINE
  8
0
  10
0.66915
  20
31.02302
  30
0
  11
0.12624
  21
31.26228
  31
0
  0
LINE
  8
0
  10
0.12624
  20
31.26228
  30
0
  11
0.02697
  21
32.84013
  31
0
  0
LINE
  8
0
  10
0.02697
  20
32.84013
  30
0
  11
0.53561
  21
33.14555
  31
0
  0
LINE
  8
0
  10
0.53561
  20
33.14555
  30
0
  11
1.04728
  21
33.42751
  31
0
  0
LINE
  8
0
  10
1.04728
  20
33.42751
  30
0
  11
1.56152
  21
33.68506
  31
0
  0
LINE
  8
0
  10
1.56152
  20
33.68506
  30
0
  11
2.07788
  21
33.91697
  31
0
  0
LINE
  8
0
  10
2.07788
  20
33.91697
  30
0
  11
2.59591
  21
34.12157
  31
0
  0
LINE
  8
0
  10
2.59591
  20
34.12157
  30
0
  11
3.11514
  21
34.29642
  31
0
  0
LINE
  8
0
  10
3.11514
  20
34.29642
  30
0
  11
3.63508
  21
34.43759
  31
0
  0
LINE
  8
0
  10
3.63508
  20
34.43759
  30
0
  11
4.15522
  21
34.53732
  31
0
  0
LINE
  8
0
  10
4.15522
  20
34.53732
  30
0
  11
4.41515
  21
34.5653
  31
0
  0
LINE
  8
0
  10
4.41515
  20
34.5653
  30
0
  11
4.67741
  21
34.73804
  31
0
  0
LINE
  8
0
  10
4.67741
  20
34.73804
  30
0
  11
4.80876
  21
34.81624
  31
0
  0
LINE
  8
0
  10
4.80876
  20
34.81624
  30
0
  11
4.94089
  21
34.91706
  31
0
  0
LINE
  8
0
  10
4.94089
  20
34.91706
  30
0
  11
5.07457
  21
35.05922
  31
0
  0
LINE
  8
0
  10
5.07457
  20
35.05922
  30
0
  11
5.218
  21
35.43455
  31
0
  0
LINE
  8
0
  10
5.218
  20
35.43455
  30
0
  11
5.26963
  21
36.3237
  31
0
  0
LINE
  8
0
  10
5.26963
  20
36.3237
  30
0
  11
5.17061
  21
36.71311
  31
0
  0
LINE
  8
0
  10
5.17061
  20
36.71311
  30
0
  11
5.05427
  21
36.86979
  31
0
  0
LINE
  8
0
  10
5.05427
  20
36.86979
  30
0
  11
4.9347
  21
36.98522
  31
0
  0
LINE
  8
0
  10
4.9347
  20
36.98522
  30
0
  11
4.81328
  21
37.07809
  31
0
  0
LINE
  8
0
  10
4.81328
  20
37.07809
  30
0
  11
4.57278
  21
37.28003
  31
0
  0
LINE
  8
0
  10
4.57278
  20
37.28003
  30
0
  11
4.31784
  21
37.3379
  31
0
  0
LINE
  8
0
  10
4.31784
  20
37.3379
  30
0
  11
3.81273
  21
37.49717
  31
0
  0
LINE
  8
0
  10
3.81273
  20
37.49717
  30
0
  11
3.31262
  21
37.69757
  31
0
  0
LINE
  8
0
  10
3.31262
  20
37.69757
  30
0
  11
2.81712
  21
37.93133
  31
0
  0
LINE
  8
0
  10
2.81712
  20
37.93133
  30
0
  11
2.32625
  21
38.19451
  31
0
  0
LINE
  8
0
  10
2.32625
  20
38.19451
  30
0
  11
1.8402
  21
38.48462
  31
0
  0
LINE
  8
0
  10
1.8402
  20
38.48462
  30
0
  11
1.35922
  21
38.79996
  31
0
  0
LINE
  8
0
  10
1.35922
  20
38.79996
  30
0
  11
0.88363
  21
39.13925
  31
0
  0
LINE
  8
0
  10
0.88363
  20
39.13925
  30
0
  11
0.41375
  21
39.50148
  31
0
  0
LINE
  8
0
  10
0.41375
  20
39.50148
  30
0
  11
0.69497
  21
41.05724
  31
0
  0
LINE
  8
0
  10
0.69497
  20
41.05724
  30
0
  11
1.26192
  21
41.23205
  31
0
  0
LINE
  8
0
  10
1.26192
  20
41.23205
  30
0
  11
1.8262
  21
41.38337
  31
0
  0
LINE
  8
0
  10
1.8262
  20
41.38337
  30
0
  11
2.38713
  21
41.51037
  31
0
  0
LINE
  8
0
  10
2.38713
  20
41.51037
  30
0
  11
2.94399
  21
41.61197
  31
0
  0
LINE
  8
0
  10
2.94399
  20
41.61197
  30
0
  11
3.49593
  21
41.68665
  31
0
  0
LINE
  8
0
  10
3.49593
  20
41.68665
  30
0
  11
4.04191
  21
41.73216
  31
0
  0
LINE
  8
0
  10
4.04191
  20
41.73216
  30
0
  11
4.58054
  21
41.7448
  31
0
  0
LINE
  8
0
  10
4.58054
  20
41.7448
  30
0
  11
5.10943
  21
41.71715
  31
0
  0
LINE
  8
0
  10
5.10943
  20
41.71715
  30
0
  11
5.3685
  21
41.68211
  31
0
  0
LINE
  8
0
  10
5.3685
  20
41.68211
  30
0
  11
5.66448
  21
41.78707
  31
0
  0
LINE
  8
0
  10
5.66448
  20
41.78707
  30
0
  11
5.81073
  21
41.83156
  31
0
  0
LINE
  8
0
  10
5.81073
  20
41.83156
  30
0
  11
5.96314
  21
41.89783
  31
0
  0
LINE
  8
0
  10
5.96314
  20
41.89783
  30
0
  11
6.12696
  21
42.00387
  31
0
  0
LINE
  8
0
  10
6.12696
  20
42.00387
  30
0
  11
6.35605
  21
42.33397
  31
0
  0
LINE
  8
0
  10
6.35605
  20
42.33397
  30
0
  11
6.61896
  21
43.18493
  31
0
  0
LINE
  8
0
  10
6.61896
  20
43.18493
  30
0
  11
6.61601
  21
43.58672
  31
0
  0
LINE
  8
0
  10
6.61601
  20
43.58672
  30
0
  11
6.54055
  21
43.76669
  31
0
  0
LINE
  8
0
  10
6.54055
  20
43.76669
  30
0
  11
6.45208
  21
43.90738
  31
0
  0
LINE
  8
0
  10
6.45208
  20
43.90738
  30
0
  11
6.35641
  21
44.02661
  31
0
  0
LINE
  8
0
  10
6.35641
  20
44.02661
  30
0
  11
6.17123
  21
44.28024
  31
0
  0
LINE
  8
0
  10
6.17123
  20
44.28024
  30
0
  11
5.93754
  21
44.39744
  31
0
  0
LINE
  8
0
  10
5.93754
  20
44.39744
  30
0
  11
5.48523
  21
44.67295
  31
0
  0
LINE
  8
0
  10
5.48523
  20
44.67295
  30
0
  11
5.04761
  21
44.98722
  31
0
  0
LINE
  8
0
  10
5.04761
  20
44.98722
  30
0
  11
4.62245
  21
45.33277
  31
0
  0
LINE
  8
0
  10
4.62245
  20
45.33277
  30
0
  11
4.20883
  21
45.70577
  31
0
  0
LINE
  8
0
  10
4.20883
  20
45.70577
  30
0
  11
3.80633
  21
46.10377
  31
0
  0
LINE
  8
0
  10
3.80633
  20
46.10377
  30
0
  11
3.41479
  21
46.52506
  31
0
  0
LINE
  8
0
  10
3.41479
  20
46.52506
  30
0
  11
3.03421
  21
46.9683
  31
0
  0
LINE
  8
0
  10
3.03421
  20
46.9683
  30
0
  11
2.66468
  21
47.43245
  31
0
  0
LINE
  8
0
  10
2.66468
  20
47.43245
  30
0
  11
3.31004
  21
48.87571
  31
0
  0
LINE
  8
0
  10
3.31004
  20
48.87571
  30
0
  11
3.90236
  21
48.90976
  31
0
  0
LINE
  8
0
  10
3.90236
  20
48.90976
  30
0
  11
4.48645
  21
48.92164
  31
0
  0
LINE
  8
0
  10
4.48645
  20
48.92164
  30
0
  11
5.06148
  21
48.91071
  31
0
  0
LINE
  8
0
  10
5.06148
  20
48.91071
  30
0
  11
5.62647
  21
48.87609
  31
0
  0
LINE
  8
0
  10
5.62647
  20
48.87609
  30
0
  11
6.18024
  21
48.81651
  31
0
  0
LINE
  8
0
  10
6.18024
  20
48.81651
  30
0
  11
6.72125
  21
48.73004
  31
0
  0
LINE
  8
0
  10
6.72125
  20
48.73004
  30
0
  11
7.24724
  21
48.61341
  31
0
  0
LINE
  8
0
  10
7.24724
  20
48.61341
  30
0
  11
7.75415
  21
48.46
  31
0
  0
LINE
  8
0
  10
7.75415
  20
48.46
  30
0
  11
7.99731
  21
48.36397
  31
0
  0
LINE
  8
0
  10
7.99731
  20
48.36397
  30
0
  11
8.30981
  21
48.39505
  31
0
  0
LINE
  8
0
  10
8.30981
  20
48.39505
  30
0
  11
8.46245
  21
48.40325
  31
0
  0
LINE
  8
0
  10
8.46245
  20
48.40325
  30
0
  11
8.6263
  21
48.43112
  31
0
  0
LINE
  8
0
  10
8.6263
  20
48.43112
  30
0
  11
8.81074
  21
48.49487
  31
0
  0
LINE
  8
0
  10
8.81074
  20
48.49487
  30
0
  11
9.11216
  21
48.76055
  31
0
  0
LINE
  8
0
  10
9.11216
  20
48.76055
  30
0
  11
9.57109
  21
49.52387
  31
0
  0
LINE
  8
0
  10
9.57109
  20
49.52387
  30
0
  11
9.66437
  21
49.91469
  31
0
  0
LINE
  8
0
  10
9.66437
  20
49.91469
  30
0
  11
9.63417
  21
50.10748
  31
0
  0
LINE
  8
0
  10
9.63417
  20
50.10748
  30
0
  11
9.58194
  21
50.26526
  31
0
  0
LINE
  8
0
  10
9.58194
  20
50.26526
  30
0
  11
9.51759
  21
50.40392
  31
0
  0
LINE
  8
0
  10
9.51759
  20
50.40392
  30
0
  11
9.39848
  21
50.6945
  31
0
  0
LINE
  8
0
  10
9.39848
  20
50.6945
  30
0
  11
9.19963
  21
50.86421
  31
0
  0
LINE
  8
0
  10
9.19963
  20
50.86421
  30
0
  11
8.8264
  21
51.23997
  31
0
  0
LINE
  8
0
  10
8.8264
  20
51.23997
  30
0
  11
8.4767
  21
51.64983
  31
0
  0
LINE
  8
0
  10
8.4767
  20
51.64983
  30
0
  11
8.14659
  21
52.08709
  31
0
  0
LINE
  8
0
  10
8.14659
  20
52.08709
  30
0
  11
7.83426
  21
52.54824
  31
0
  0
LINE
  8
0
  10
7.83426
  20
52.54824
  30
0
  11
7.53871
  21
53.031
  31
0
  0
LINE
  8
0
  10
7.53871
  20
53.031
  30
0
  11
7.25937
  21
53.53374
  31
0
  0
LINE
  8
0
  10
7.25937
  20
53.53374
  30
0
  11
6.99592
  21
54.05518
  31
0
  0
LINE
  8
0
  10
6.99592
  20
54.05518
  30
0
  11
6.7482
  21
54.59429
  31
0
  0
LINE
  8
0
  10
6.7482
  20
54.59429
  30
0
  11
7.72021
  21
55.84116
  31
0
  0
LINE
  8
0
  10
7.72021
  20
55.84116
  30
0
  11
8.30346
  21
55.73247
  31
0
  0
LINE
  8
0
  10
8.30346
  20
55.73247
  30
0
  11
8.87342
  21
55.60422
  31
0
  0
LINE
  8
0
  10
8.87342
  20
55.60422
  30
0
  11
9.42913
  21
55.456
  31
0
  0
LINE
  8
0
  10
9.42913
  20
55.456
  30
0
  11
9.96942
  21
55.28717
  31
0
  0
LINE
  8
0
  10
9.96942
  20
55.28717
  30
0
  11
10.49284
  21
55.0968
  31
0
  0
LINE
  8
0
  10
10.49284
  20
55.0968
  30
0
  11
10.99743
  21
54.88336
  31
0
  0
LINE
  8
0
  10
10.99743
  20
54.88336
  30
0
  11
11.48023
  21
54.64424
  31
0
  0
LINE
  8
0
  10
11.48023
  20
54.64424
  30
0
  11
11.9357
  21
54.37398
  31
0
  0
LINE
  8
0
  10
11.9357
  20
54.37398
  30
0
  11
12.14881
  21
54.22255
  31
0
  0
LINE
  8
0
  10
12.14881
  20
54.22255
  30
0
  11
12.45966
  21
54.17795
  31
0
  0
LINE
  8
0
  10
12.45966
  20
54.17795
  30
0
  11
12.60983
  21
54.14937
  31
0
  0
LINE
  8
0
  10
12.60983
  20
54.14937
  30
0
  11
12.77558
  21
54.13722
  31
0
  0
LINE
  8
0
  10
12.77558
  20
54.13722
  30
0
  11
12.96992
  21
54.15498
  31
0
  0
LINE
  8
0
  10
12.96992
  20
54.15498
  30
0
  11
13.32617
  21
54.34081
  31
0
  0
LINE
  8
0
  10
13.32617
  20
54.34081
  30
0
  11
13.95443
  21
54.97211
  31
0
  0
LINE
  8
0
  10
13.95443
  20
54.97211
  30
0
  11
14.13853
  21
55.32925
  31
0
  0
LINE
  8
0
  10
14.13853
  20
55.32925
  30
0
  11
14.15535
  21
55.52368
  31
0
  0
LINE
  8
0
  10
14.15535
  20
55.52368
  30
0
  11
14.1424
  21
55.68936
  31
0
  0
LINE
  8
0
  10
14.1424
  20
55.68936
  30
0
  11
14.1131
  21
55.8394
  31
0
  0
LINE
  8
0
  10
14.1131
  20
55.8394
  30
0
  11
14.067
  21
56.15003
  31
0
  0
LINE
  8
0
  10
14.067
  20
56.15003
  30
0
  11
13.91454
  21
56.36241
  31
0
  0
LINE
  8
0
  10
13.91454
  20
56.36241
  30
0
  11
13.64208
  21
56.81657
  31
0
  0
LINE
  8
0
  10
13.64208
  20
56.81657
  30
0
  11
13.40063
  21
57.2982
  31
0
  0
LINE
  8
0
  10
13.40063
  20
57.2982
  30
0
  11
13.18475
  21
57.80176
  31
0
  0
LINE
  8
0
  10
13.18475
  20
57.80176
  30
0
  11
12.99185
  21
58.32425
  31
0
  0
LINE
  8
0
  10
12.99185
  20
58.32425
  30
0
  11
12.82042
  21
58.86372
  31
0
  0
LINE
  8
0
  10
12.82042
  20
58.86372
  30
0
  11
12.66951
  21
59.4187
  31
0
  0
LINE
  8
0
  10
12.66951
  20
59.4187
  30
0
  11
12.53851
  21
59.98804
  31
0
  0
LINE
  8
0
  10
12.53851
  20
59.98804
  30
0
  11
12.42701
  21
60.57076
  31
0
  0
LINE
  8
0
  10
12.42701
  20
60.57076
  30
0
  11
13.66916
  21
61.54878
  31
0
  0
LINE
  8
0
  10
13.66916
  20
61.54878
  30
0
  11
14.20946
  21
61.30367
  31
0
  0
LINE
  8
0
  10
14.20946
  20
61.30367
  30
0
  11
14.73216
  21
61.04275
  31
0
  0
LINE
  8
0
  10
14.73216
  20
61.04275
  30
0
  11
15.23625
  21
60.76584
  31
0
  0
LINE
  8
0
  10
15.23625
  20
60.76584
  30
0
  11
15.72044
  21
60.47262
  31
0
  0
LINE
  8
0
  10
15.72044
  20
60.47262
  30
0
  11
16.18309
  21
60.16252
  31
0
  0
LINE
  8
0
  10
16.18309
  20
60.16252
  30
0
  11
16.62194
  21
59.83453
  31
0
  0
LINE
  8
0
  10
16.62194
  20
59.83453
  30
0
  11
17.03348
  21
59.48681
  31
0
  0
LINE
  8
0
  10
17.03348
  20
59.48681
  30
0
  11
17.41104
  21
59.1154
  31
0
  0
LINE
  8
0
  10
17.41104
  20
59.1154
  30
0
  11
17.58172
  21
58.91738
  31
0
  0
LINE
  8
0
  10
17.58172
  20
58.91738
  30
0
  11
17.87286
  21
58.79967
  31
0
  0
LINE
  8
0
  10
17.87286
  20
58.79967
  30
0
  11
18.01184
  21
58.73599
  31
0
  0
LINE
  8
0
  10
18.01184
  20
58.73599
  30
0
  11
18.16986
  21
58.68453
  31
0
  0
LINE
  8
0
  10
18.16986
  20
58.68453
  30
0
  11
18.3628
  21
58.65526
  31
0
  0
LINE
  8
0
  10
18.3628
  20
58.65526
  30
0
  11
18.75317
  21
58.75043
  31
0
  0
LINE
  8
0
  10
18.75317
  20
58.75043
  30
0
  11
19.51426
  21
59.21304
  31
0
  0
LINE
  8
0
  10
19.51426
  20
59.21304
  30
0
  11
19.77848
  21
59.51575
  31
0
  0
LINE
  8
0
  10
19.77848
  20
59.51575
  30
0
  11
19.84134
  21
59.70049
  31
0
  0
LINE
  8
0
  10
19.84134
  20
59.70049
  30
0
  11
19.86841
  21
59.86447
  31
0
  0
LINE
  8
0
  10
19.86841
  20
59.86447
  30
0
  11
19.87587
  21
60.01715
  31
0
  0
LINE
  8
0
  10
19.87587
  20
60.01715
  30
0
  11
19.90544
  21
60.3298
  31
0
  0
LINE
  8
0
  10
19.90544
  20
60.3298
  30
0
  11
19.80824
  21
60.57249
  31
0
  0
LINE
  8
0
  10
19.80824
  20
60.57249
  30
0
  11
19.65238
  21
61.07865
  31
0
  0
LINE
  8
0
  10
19.65238
  20
61.07865
  30
0
  11
19.53321
  21
61.60408
  31
0
  0
LINE
  8
0
  10
19.53321
  20
61.60408
  30
0
  11
19.44412
  21
62.14466
  31
0
  0
LINE
  8
0
  10
19.44412
  20
62.14466
  30
0
  11
19.38187
  21
62.69813
  31
0
  0
LINE
  8
0
  10
19.38187
  20
62.69813
  30
0
  11
19.34452
  21
63.26295
  31
0
  0
LINE
  8
0
  10
19.34452
  20
63.26295
  30
0
  11
19.33081
  21
63.83792
  31
0
  0
LINE
  8
0
  10
19.33081
  20
63.83792
  30
0
  11
19.33987
  21
64.42206
  31
0
  0
LINE
  8
0
  10
19.33987
  20
64.42206
  30
0
  11
19.37106
  21
65.01454
  31
0
  0
LINE
  8
0
  10
19.37106
  20
65.01454
  30
0
  11
20.81118
  21
65.66687
  31
0
  0
LINE
  8
0
  10
20.81118
  20
65.66687
  30
0
  11
21.27711
  21
65.29958
  31
0
  0
LINE
  8
0
  10
21.27711
  20
65.29958
  30
0
  11
21.72219
  21
64.92115
  31
0
  0
LINE
  8
0
  10
21.72219
  20
64.92115
  30
0
  11
22.14536
  21
64.53165
  31
0
  0
LINE
  8
0
  10
22.14536
  20
64.53165
  30
0
  11
22.5453
  21
64.13108
  31
0
  0
LINE
  8
0
  10
22.5453
  20
64.13108
  30
0
  11
22.9203
  21
63.71927
  31
0
  0
LINE
  8
0
  10
22.9203
  20
63.71927
  30
0
  11
23.2679
  21
63.29579
  31
0
  0
LINE
  8
0
  10
23.2679
  20
63.29579
  30
0
  11
23.58428
  21
62.85969
  31
0
  0
LINE
  8
0
  10
23.58428
  20
62.85969
  30
0
  11
23.86197
  21
62.40872
  31
0
  0
LINE
  8
0
  10
23.86197
  20
62.40872
  30
0
  11
23.9803
  21
62.1756
  31
0
  0
LINE
  8
0
  10
23.9803
  20
62.1756
  30
0
  11
24.23482
  21
61.99164
  31
0
  0
LINE
  8
0
  10
24.23482
  20
61.99164
  30
0
  11
24.35452
  21
61.89655
  31
0
  0
LINE
  8
0
  10
24.35452
  20
61.89655
  30
0
  11
24.49563
  21
61.80876
  31
0
  0
LINE
  8
0
  10
24.49563
  20
61.80876
  30
0
  11
24.67596
  21
61.73417
  31
0
  0
LINE
  8
0
  10
24.67596
  20
61.73417
  30
0
  11
25.07776
  21
61.73316
  31
0
  0
LINE
  8
0
  10
25.07776
  20
61.73316
  30
0
  11
25.92744
  21
62.00018
  31
0
  0
LINE
  8
0
  10
25.92744
  20
62.00018
  30
0
  11
26.25643
  21
62.23086
  31
0
  0
LINE
  8
0
  10
26.25643
  20
62.23086
  30
0
  11
26.36167
  21
62.3952
  31
0
  0
LINE
  8
0
  10
26.36167
  20
62.3952
  30
0
  11
26.4272
  21
62.54793
  31
0
  0
LINE
  8
0
  10
26.4272
  20
62.54793
  30
0
  11
26.47099
  21
62.69439
  31
0
  0
LINE
  8
0
  10
26.47099
  20
62.69439
  30
0
  11
26.57452
  21
62.99087
  31
0
  0
LINE
  8
0
  10
26.57452
  20
62.99087
  30
0
  11
26.53822
  21
63.24977
  31
0
  0
LINE
  8
0
  10
26.53822
  20
63.24977
  30
0
  11
26.50803
  21
63.77852
  31
0
  0
LINE
  8
0
  10
26.50803
  20
63.77852
  30
0
  11
26.51806
  21
64.3172
  31
0
  0
LINE
  8
0
  10
26.51806
  20
64.3172
  30
0
  11
26.56093
  21
64.8634
  31
0
  0
LINE
  8
0
  10
26.56093
  20
64.8634
  30
0
  11
26.63294
  21
65.41569
  31
0
  0
LINE
  8
0
  10
26.63294
  20
65.41569
  30
0
  11
26.73185
  21
65.97303
  31
0
  0
LINE
  8
0
  10
26.73185
  20
65.97303
  30
0
  11
26.85614
  21
66.53457
  31
0
  0
LINE
  8
0
  10
26.85614
  20
66.53457
  30
0
  11
27.00472
  21
67.09958
  31
0
  0
LINE
  8
0
  10
27.00472
  20
67.09958
  30
0
  11
27.17679
  21
67.66737
  31
0
  0
LINE
  8
0
  10
27.17679
  20
67.66737
  30
0
  11
28.73118
  21
67.9561
  31
0
  0
LINE
  8
0
  10
28.73118
  20
67.9561
  30
0
  11
29.09568
  21
67.48798
  31
0
  0
LINE
  8
0
  10
29.09568
  20
67.48798
  30
0
  11
29.43726
  21
67.01403
  31
0
  0
LINE
  8
0
  10
29.43726
  20
67.01403
  30
0
  11
29.75492
  21
66.53458
  31
0
  0
LINE
  8
0
  10
29.75492
  20
66.53458
  30
0
  11
30.04738
  21
66.04994
  31
0
  0
LINE
  8
0
  10
30.04738
  20
66.04994
  30
0
  11
30.31292
  21
65.56035
  31
0
  0
LINE
  8
0
  10
30.31292
  20
65.56035
  30
0
  11
30.54908
  21
65.06599
  31
0
  0
LINE
  8
0
  10
30.54908
  20
65.06599
  30
0
  11
30.7519
  21
64.56685
  31
0
  0
LINE
  8
0
  10
30.7519
  20
64.56685
  30
0
  11
30.9136
  21
64.06252
  31
0
  0
LINE
  8
0
  10
30.9136
  20
64.06252
  30
0
  11
30.9727
  21
63.80786
  31
0
  0
LINE
  8
0
  10
30.9727
  20
63.80786
  30
0
  11
31.1758
  21
63.56833
  31
0
  0
LINE
  8
0
  10
31.1758
  20
63.56833
  30
0
  11
31.26926
  21
63.44736
  31
0
  0
LINE
  8
0
  10
31.26926
  20
63.44736
  30
0
  11
31.38527
  21
63.32836
  31
0
  0
LINE
  8
0
  10
31.38527
  20
63.32836
  30
0
  11
31.54251
  21
63.21278
  31
0
  0
LINE
  8
0
  10
31.54251
  20
63.21278
  30
0
  11
31.93238
  21
63.11564
  31
0
  0
LINE
  8
0
  10
31.93238
  20
63.11564
  30
0
  11
32.82128
  21
63.17156
  31
0
  0
LINE
  8
0
  10
32.82128
  20
63.17156
  30
0
  11
33.19591
  21
63.3168
  31
0
  0
LINE
  8
0
  10
33.19591
  20
63.3168
  30
0
  11
33.33743
  21
63.45118
  31
0
  0
LINE
  8
0
  10
33.33743
  20
63.45118
  30
0
  11
33.4376
  21
63.58379
  31
0
  0
LINE
  8
0
  10
33.4376
  20
63.58379
  30
0
  11
33.51517
  21
63.71552
  31
0
  0
LINE
  8
0
  10
33.51517
  20
63.71552
  30
0
  11
33.68664
  21
63.9786
  31
0
  0
LINE
  8
0
  10
33.68664
  20
63.9786
  30
0
  11
33.71336
  21
64.23867
  31
0
  0
LINE
  8
0
  10
33.71336
  20
64.23867
  30
0
  11
33.81058
  21
64.75928
  31
0
  0
LINE
  8
0
  10
33.81058
  20
64.75928
  30
0
  11
33.94924
  21
65.27991
  31
0
  0
LINE
  8
0
  10
33.94924
  20
65.27991
  30
0
  11
34.12157
  21
65.79997
  31
0
  0
LINE
  8
0
  10
34.12157
  20
65.79997
  30
0
  11
34.32366
  21
66.31898
  31
0
  0
LINE
  8
0
  10
34.32366
  20
66.31898
  30
0
  11
34.55307
  21
66.83646
  31
0
  0
LINE
  8
0
  10
34.55307
  20
66.83646
  30
0
  11
34.80814
  21
67.35194
  31
0
  0
LINE
  8
0
  10
34.80814
  20
67.35194
  30
0
  11
35.08762
  21
67.86496
  31
0
  0
LINE
  8
0
  10
35.08762
  20
67.86496
  30
0
  11
35.39057
  21
68.37508
  31
0
  0
LINE
  8
0
  10
35.39057
  20
68.37508
  30
0
  11
36.96889
  21
68.28343
  31
0
  0
LINE
  8
0
  10
36.96889
  20
68.28343
  30
0
  11
37.21077
  21
67.74169
  31
0
  0
LINE
  8
0
  10
37.21077
  20
67.74169
  30
0
  11
37.429
  21
67.19976
  31
0
  0
LINE
  8
0
  10
37.429
  20
67.19976
  30
0
  11
37.62269
  21
66.65823
  31
0
  0
LINE
  8
0
  10
37.62269
  20
66.65823
  30
0
  11
37.79067
  21
66.11767
  31
0
  0
LINE
  8
0
  10
37.79067
  20
66.11767
  30
0
  11
37.93133
  21
65.57876
  31
0
  0
LINE
  8
0
  10
37.93133
  20
65.57876
  30
0
  11
38.04232
  21
65.04225
  31
0
  0
LINE
  8
0
  10
38.04232
  20
65.04225
  30
0
  11
38.11979
  21
64.50907
  31
0
  0
LINE
  8
0
  10
38.11979
  20
64.50907
  30
0
  11
38.1561
  21
63.9807
  31
0
  0
LINE
  8
0
  10
38.1561
  20
63.9807
  30
0
  11
38.15254
  21
63.7193
  31
0
  0
LINE
  8
0
  10
38.15254
  20
63.7193
  30
0
  11
38.29241
  21
63.43813
  31
0
  0
LINE
  8
0
  10
38.29241
  20
63.43813
  30
0
  11
38.35421
  21
63.29831
  31
0
  0
LINE
  8
0
  10
38.35421
  20
63.29831
  30
0
  11
38.43836
  21
63.155
  31
0
  0
LINE
  8
0
  10
38.43836
  20
63.155
  30
0
  11
38.56337
  21
63.00515
  31
0
  0
LINE
  8
0
  10
38.56337
  20
63.00515
  30
0
  11
38.91868
  21
62.81752
  31
0
  0
LINE
  8
0
  10
38.91868
  20
62.81752
  30
0
  11
39.79513
  21
62.6591
  31
0
  0
LINE
  8
0
  10
39.79513
  20
62.6591
  30
0
  11
40.19363
  21
62.71046
  31
0
  0
LINE
  8
0
  10
40.19363
  20
62.71046
  30
0
  11
40.36319
  21
62.80706
  31
0
  0
LINE
  8
0
  10
40.36319
  20
62.80706
  30
0
  11
40.49219
  21
62.91185
  31
0
  0
LINE
  8
0
  10
40.49219
  20
62.91185
  30
0
  11
40.59902
  21
63.02119
  31
0
  0
LINE
  8
0
  10
40.59902
  20
63.02119
  30
0
  11
40.82848
  21
63.23559
  31
0
  0
LINE
  8
0
  10
40.82848
  20
63.23559
  30
0
  11
40.91666
  21
63.48171
  31
0
  0
LINE
  8
0
  10
40.91666
  20
63.48171
  30
0
  11
41.13564
  21
63.96393
  31
0
  0
LINE
  8
0
  10
41.13564
  20
63.96393
  30
0
  11
41.39486
  21
64.43624
  31
0
  0
LINE
  8
0
  10
41.39486
  20
64.43624
  30
0
  11
41.68665
  21
64.89995
  31
0
  0
LINE
  8
0
  10
41.68665
  20
64.89995
  30
0
  11
42.00707
  21
65.35552
  31
0
  0
LINE
  8
0
  10
42.00707
  20
65.35552
  30
0
  11
42.35366
  21
65.80305
  31
0
  0
LINE
  8
0
  10
42.35366
  20
65.80305
  30
0
  11
42.72468
  21
66.24251
  31
0
  0
LINE
  8
0
  10
42.72468
  20
66.24251
  30
0
  11
43.11882
  21
66.67375
  31
0
  0
LINE
  8
0
  10
43.11882
  20
66.67375
  30
0
  11
43.53504
  21
67.09654
  31
0
  0
LINE
  8
0
  10
43.53504
  20
67.09654
  30
0
  11
45.04556
  21
66.62984
  31
0
  0
LINE
  8
0
  10
45.04556
  20
66.62984
  30
0
  11
45.15076
  21
66.04595
  31
0
  0
LINE
  8
0
  10
45.15076
  20
66.04595
  30
0
  11
45.23296
  21
65.46755
  31
0
  0
LINE
  8
0
  10
45.23296
  20
65.46755
  30
0
  11
45.29142
  21
64.89539
  31
0
  0
LINE
  8
0
  10
45.29142
  20
64.89539
  30
0
  11
45.32516
  21
64.33035
  31
0
  0
LINE
  8
0
  10
45.32516
  20
64.33035
  30
0
  11
45.33277
  21
63.77343
  31
0
  0
LINE
  8
0
  10
45.33277
  20
63.77343
  30
0
  11
45.31213
  21
63.22595
  31
0
  0
LINE
  8
0
  10
45.31213
  20
63.22595
  30
0
  11
45.25975
  21
62.68973
  31
0
  0
LINE
  8
0
  10
45.25975
  20
62.68973
  30
0
  11
45.16856
  21
62.16802
  31
0
  0
LINE
  8
0
  10
45.16856
  20
62.16802
  30
0
  11
45.10255
  21
61.91506
  31
0
  0
LINE
  8
0
  10
45.10255
  20
61.91506
  30
0
  11
45.17107
  21
61.60859
  31
0
  0
LINE
  8
0
  10
45.17107
  20
61.60859
  30
0
  11
45.19761
  21
61.45805
  31
0
  0
LINE
  8
0
  10
45.19761
  20
61.45805
  30
0
  11
45.24502
  21
61.29876
  31
0
  0
LINE
  8
0
  10
45.24502
  20
61.29876
  30
0
  11
45.33054
  21
61.12335
  31
0
  0
LINE
  8
0
  10
45.33054
  20
61.12335
  30
0
  11
45.63061
  21
60.85614
  31
0
  0
LINE
  8
0
  10
45.63061
  20
60.85614
  30
0
  11
46.44368
  21
60.49257
  31
0
  0
LINE
  8
0
  10
46.44368
  20
60.49257
  30
0
  11
46.8429
  21
60.44708
  31
0
  0
LINE
  8
0
  10
46.8429
  20
60.44708
  30
0
  11
47.03065
  21
60.50029
  31
0
  0
LINE
  8
0
  10
47.03065
  20
60.50029
  30
0
  11
47.18098
  21
60.57116
  31
0
  0
LINE
  8
0
  10
47.18098
  20
60.57116
  30
0
  11
47.31087
  21
60.65176
  31
0
  0
LINE
  8
0
  10
47.31087
  20
60.65176
  30
0
  11
47.58497
  21
60.80502
  31
0
  0
LINE
  8
0
  10
47.58497
  20
60.80502
  30
0
  11
47.72949
  21
61.02288
  31
0
  0
LINE
  8
0
  10
47.72949
  20
61.02288
  30
0
  11
48.05751
  21
61.43868
  31
0
  0
LINE
  8
0
  10
48.05751
  20
61.43868
  30
0
  11
48.42223
  21
61.83523
  31
0
  0
LINE
  8
0
  10
48.42223
  20
61.83523
  30
0
  11
48.81651
  21
62.21564
  31
0
  0
LINE
  8
0
  10
48.81651
  20
62.21564
  30
0
  11
49.23665
  21
62.58128
  31
0
  0
LINE
  8
0
  10
49.23665
  20
62.58128
  30
0
  11
49.68027
  21
62.93287
  31
0
  0
LINE
  8
0
  10
49.68027
  20
62.93287
  30
0
  11
50.14568
  21
63.27077
  31
0
  0
LINE
  8
0
  10
50.14568
  20
63.27077
  30
0
  11
50.63156
  21
63.59515
  31
0
  0
LINE
  8
0
  10
50.63156
  20
63.59515
  30
0
  11
51.13687
  21
63.90605
  31
0
  0
LINE
  8
0
  10
51.13687
  20
63.90605
  30
0
  11
52.49181
  21
63.09142
  31
0
  0
LINE
  8
0
  10
52.49181
  20
63.09142
  30
0
  11
52.45422
  21
62.49932
  31
0
  0
LINE
  8
0
  10
52.45422
  20
62.49932
  30
0
  11
52.39561
  21
61.91806
  31
0
  0
LINE
  8
0
  10
52.39561
  20
61.91806
  30
0
  11
52.31545
  21
61.34854
  31
0
  0
LINE
  8
0
  10
52.31545
  20
61.34854
  30
0
  11
52.21298
  21
60.79184
  31
0
  0
LINE
  8
0
  10
52.21298
  20
60.79184
  30
0
  11
52.08709
  21
60.24929
  31
0
  0
LINE
  8
0
  10
52.08709
  20
60.24929
  30
0
  11
51.93603
  21
59.72265
  31
0
  0
LINE
  8
0
  10
51.93603
  20
59.72265
  30
0
  11
51.75685
  21
59.21454
  31
0
  0
LINE
  8
0
  10
51.75685
  20
59.21454
  30
0
  11
51.54346
  21
58.72982
  31
0
  0
LINE
  8
0
  10
51.54346
  20
58.72982
  30
0
  11
51.41882
  21
58.50001
  31
0
  0
LINE
  8
0
  10
51.41882
  20
58.50001
  30
0
  11
51.41201
  21
58.18605
  31
0
  0
LINE
  8
0
  10
51.41201
  20
58.18605
  30
0
  11
51.40175
  21
58.03352
  31
0
  0
LINE
  8
0
  10
51.40175
  20
58.03352
  30
0
  11
51.40966
  21
57.86752
  31
0
  0
LINE
  8
0
  10
51.40966
  20
57.86752
  30
0
  11
51.45072
  21
57.67674
  31
0
  0
LINE
  8
0
  10
51.45072
  20
57.67674
  30
0
  11
51.67813
  21
57.34549
  31
0
  0
LINE
  8
0
  10
51.67813
  20
57.34549
  30
0
  11
52.38056
  21
56.7979
  31
0
  0
LINE
  8
0
  10
52.38056
  20
56.7979
  30
0
  11
52.75729
  21
56.65819
  31
0
  0
LINE
  8
0
  10
52.75729
  20
56.65819
  30
0
  11
52.95232
  21
56.66493
  31
0
  0
LINE
  8
0
  10
52.95232
  20
56.66493
  30
0
  11
53.11524
  21
56.69776
  31
0
  0
LINE
  8
0
  10
53.11524
  20
56.69776
  30
0
  11
53.26065
  21
56.74493
  31
0
  0
LINE
  8
0
  10
53.26065
  20
56.74493
  30
0
  11
53.56346
  21
56.82814
  31
0
  0
LINE
  8
0
  10
53.56346
  20
56.82814
  30
0
  11
53.75591
  21
57.00508
  31
0
  0
LINE
  8
0
  10
53.75591
  20
57.00508
  30
0
  11
54.17391
  21
57.3303
  31
0
  0
LINE
  8
0
  10
54.17391
  20
57.3303
  30
0
  11
54.62294
  21
57.62805
  31
0
  0
LINE
  8
0
  10
54.62294
  20
57.62805
  30
0
  11
55.0968
  21
57.90304
  31
0
  0
LINE
  8
0
  10
55.0968
  20
57.90304
  30
0
  11
55.59223
  21
58.15752
  31
0
  0
LINE
  8
0
  10
55.59223
  20
58.15752
  30
0
  11
56.1071
  21
58.39272
  31
0
  0
LINE
  8
0
  10
56.1071
  20
58.39272
  30
0
  11
56.63985
  21
58.60943
  31
0
  0
LINE
  8
0
  10
56.63985
  20
58.60943
  30
0
  11
57.18924
  21
58.8081
  31
0
  0
LINE
  8
0
  10
57.18924
  20
58.8081
  30
0
  11
57.75427
  21
58.98903
  31
0
  0
LINE
  8
0
  10
57.75427
  20
58.98903
  30
0
  11
58.87489
  21
57.87382
  31
0
  0
LINE
  8
0
  10
58.87489
  20
57.87382
  30
0
  11
58.69669
  21
57.30792
  31
0
  0
LINE
  8
0
  10
58.69669
  20
57.30792
  30
0
  11
58.50068
  21
56.75757
  31
0
  0
LINE
  8
0
  10
58.50068
  20
56.75757
  30
0
  11
58.28655
  21
56.22379
  31
0
  0
LINE
  8
0
  10
58.28655
  20
56.22379
  30
0
  11
58.05383
  21
55.70778
  31
0
  0
LINE
  8
0
  10
58.05383
  20
55.70778
  30
0
  11
57.80176
  21
55.21113
  31
0
  0
LINE
  8
0
  10
57.80176
  20
55.21113
  30
0
  11
57.52905
  21
54.73594
  31
0
  0
LINE
  8
0
  10
57.52905
  20
54.73594
  30
0
  11
57.23348
  21
54.28548
  31
0
  0
LINE
  8
0
  10
57.23348
  20
54.28548
  30
0
  11
56.91029
  21
53.86591
  31
0
  0
LINE
  8
0
  10
56.91029
  20
53.86591
  30
0
  11
56.73428
  21
53.67261
  31
0
  0
LINE
  8
0
  10
56.73428
  20
53.67261
  30
0
  11
56.65253
  21
53.3694
  31
0
  0
LINE
  8
0
  10
56.65253
  20
53.3694
  30
0
  11
56.60606
  21
53.22376
  31
0
  0
LINE
  8
0
  10
56.60606
  20
53.22376
  30
0
  11
56.57402
  21
53.06069
  31
0
  0
LINE
  8
0
  10
56.57402
  20
53.06069
  30
0
  11
56.56823
  21
52.86563
  31
0
  0
LINE
  8
0
  10
56.56823
  20
52.86563
  30
0
  11
56.70975
  21
52.48958
  31
0
  0
LINE
  8
0
  10
56.70975
  20
52.48958
  30
0
  11
57.26073
  21
51.7898
  31
0
  0
LINE
  8
0
  10
57.26073
  20
51.7898
  30
0
  11
57.59308
  21
51.56399
  31
0
  0
LINE
  8
0
  10
57.59308
  20
51.56399
  30
0
  11
57.78405
  21
51.52386
  31
0
  0
LINE
  8
0
  10
57.78405
  20
51.52386
  30
0
  11
57.9501
  21
51.51675
  31
0
  0
LINE
  8
0
  10
57.9501
  20
51.51675
  30
0
  11
58.10257
  21
51.52775
  31
0
  0
LINE
  8
0
  10
58.10257
  20
51.52775
  30
0
  11
58.4165
  21
51.53608
  31
0
  0
LINE
  8
0
  10
58.4165
  20
51.53608
  30
0
  11
58.6457
  21
51.66182
  31
0
  0
LINE
  8
0
  10
58.6457
  20
51.66182
  30
0
  11
59.12939
  21
51.87755
  31
0
  0
LINE
  8
0
  10
59.12939
  20
51.87755
  30
0
  11
59.63662
  21
52.05919
  31
0
  0
LINE
  8
0
  10
59.63662
  20
52.05919
  30
0
  11
60.16252
  21
52.21279
  31
0
  0
LINE
  8
0
  10
60.16252
  20
52.21279
  30
0
  11
60.70446
  21
52.34131
  31
0
  0
LINE
  8
0
  10
60.70446
  20
52.34131
  30
0
  11
61.26065
  21
52.44646
  31
0
  0
LINE
  8
0
  10
61.26065
  20
52.44646
  30
0
  11
61.82978
  21
52.52937
  31
0
  0
LINE
  8
0
  10
61.82978
  20
52.52937
  30
0
  11
62.41075
  21
52.5908
  31
0
  0
LINE
  8
0
  10
62.41075
  20
52.5908
  30
0
  11
63.00267
  21
52.63125
  31
0
  0
LINE
  8
0
  10
63.00267
  20
52.63125
  30
0
  11
63.82383
  21
51.28026
  31
0
  0
LINE
  8
0
  10
63.82383
  20
51.28026
  30
0
  11
63.51538
  21
50.77345
  31
0
  0
LINE
  8
0
  10
63.51538
  20
50.77345
  30
0
  11
63.19336
  21
50.286
  31
0
  0
LINE
  8
0
  10
63.19336
  20
50.286
  30
0
  11
62.85771
  21
49.81897
  31
0
  0
LINE
  8
0
  10
62.85771
  20
49.81897
  30
0
  11
62.50827
  21
49.37366
  31
0
  0
LINE
  8
0
  10
62.50827
  20
49.37366
  30
0
  11
62.14466
  21
48.95176
  31
0
  0
LINE
  8
0
  10
62.14466
  20
48.95176
  30
0
  11
61.76616
  21
48.55564
  31
0
  0
LINE
  8
0
  10
61.76616
  20
48.55564
  30
0
  11
61.37138
  21
48.18901
  31
0
  0
LINE
  8
0
  10
61.37138
  20
48.18901
  30
0
  11
60.95716
  21
47.85898
  31
0
  0
LINE
  8
0
  10
60.95716
  20
47.85898
  30
0
  11
60.74001
  21
47.71341
  31
0
  0
LINE
  8
0
  10
60.74001
  20
47.71341
  30
0
  11
60.58807
  21
47.43858
  31
0
  0
LINE
  8
0
  10
60.58807
  20
47.43858
  30
0
  11
60.5081
  21
47.30829
  31
0
  0
LINE
  8
0
  10
60.5081
  20
47.30829
  30
0
  11
60.43796
  21
47.15762
  31
0
  0
LINE
  8
0
  10
60.43796
  20
47.15762
  30
0
  11
60.38566
  21
46.96962
  31
0
  0
LINE
  8
0
  10
60.38566
  20
46.96962
  30
0
  11
60.43308
  21
46.57063
  31
0
  0
LINE
  8
0
  10
60.43308
  20
46.57063
  30
0
  11
60.80058
  21
45.75932
  31
0
  0
LINE
  8
0
  10
60.80058
  20
45.75932
  30
0
  11
61.06923
  21
45.46054
  31
0
  0
LINE
  8
0
  10
61.06923
  20
45.46054
  30
0
  11
61.24505
  21
45.37587
  31
0
  0
LINE
  8
0
  10
61.24505
  20
45.37587
  30
0
  11
61.40456
  21
45.32923
  31
0
  0
LINE
  8
0
  10
61.40456
  20
45.32923
  30
0
  11
61.55524
  21
45.30342
  31
0
  0
LINE
  8
0
  10
61.55524
  20
45.30342
  30
0
  11
61.86204
  21
45.23638
  31
0
  0
LINE
  8
0
  10
61.86204
  20
45.23638
  30
0
  11
62.11467
  21
45.30362
  31
0
  0
LINE
  8
0
  10
62.11467
  20
45.30362
  30
0
  11
62.63593
  21
45.39733
  31
0
  0
LINE
  8
0
  10
62.63593
  20
45.39733
  30
0
  11
63.17189
  21
45.4523
  31
0
  0
LINE
  8
0
  10
63.17189
  20
45.4523
  30
0
  11
63.71927
  21
45.47558
  31
0
  0
LINE
  8
0
  10
63.71927
  20
45.47558
  30
0
  11
64.27622
  21
45.47067
  31
0
  0
LINE
  8
0
  10
64.27622
  20
45.47067
  30
0
  11
64.84142
  21
45.43966
  31
0
  0
LINE
  8
0
  10
64.84142
  20
45.43966
  30
0
  11
65.41385
  21
45.38396
  31
0
  0
LINE
  8
0
  10
65.41385
  20
45.38396
  30
0
  11
65.99264
  21
45.30456
  31
0
  0
LINE
  8
0
  10
65.99264
  20
45.30456
  30
0
  11
66.57703
  21
45.20219
  31
0
  0
LINE
  8
0
  10
66.57703
  20
45.20219
  30
0
  11
67.05102
  21
43.69394
  31
0
  0
LINE
  8
0
  10
67.05102
  20
43.69394
  30
0
  11
66.63025
  21
43.27567
  31
0
  0
LINE
  8
0
  10
66.63025
  20
43.27567
  30
0
  11
66.20093
  21
42.87946
  31
0
  0
LINE
  8
0
  10
66.20093
  20
42.87946
  30
0
  11
65.76327
  21
42.50632
  31
0
  0
LINE
  8
0
  10
65.76327
  20
42.50632
  30
0
  11
65.31741
  21
42.15757
  31
0
  0
LINE
  8
0
  10
65.31741
  20
42.15757
  30
0
  11
64.8634
  21
41.83495
  31
0
  0
LINE
  8
0
  10
64.8634
  20
41.83495
  30
0
  11
64.4011
  21
41.54093
  31
0
  0
LINE
  8
0
  10
64.4011
  20
41.54093
  30
0
  11
63.93005
  21
41.27943
  31
0
  0
LINE
  8
0
  10
63.93005
  20
41.27943
  30
0
  11
63.44889
  21
41.05811
  31
0
  0
LINE
  8
0
  10
63.44889
  20
41.05811
  30
0
  11
63.20321
  21
40.96875
  31
0
  0
LINE
  8
0
  10
63.20321
  20
40.96875
  30
0
  11
62.98991
  21
40.73826
  31
0
  0
LINE
  8
0
  10
62.98991
  20
40.73826
  30
0
  11
62.88109
  21
40.6309
  31
0
  0
LINE
  8
0
  10
62.88109
  20
40.6309
  30
0
  11
62.77693
  21
40.50139
  31
0
  0
LINE
  8
0
  10
62.77693
  20
40.50139
  30
0
  11
62.68115
  21
40.33137
  31
0
  0
LINE
  8
0
  10
62.68115
  20
40.33137
  30
0
  11
62.63171
  21
39.93262
  31
0
  0
LINE
  8
0
  10
62.63171
  20
39.93262
  30
0
  11
62.79437
  21
39.05694
  31
0
  0
LINE
  8
0
  10
62.79437
  20
39.05694
  30
0
  11
62.98371
  21
38.70255
  31
0
  0
LINE
  8
0
  10
62.98371
  20
38.70255
  30
0
  11
63.13416
  21
38.57827
  31
0
  0
LINE
  8
0
  10
63.13416
  20
38.57827
  30
0
  11
63.27788
  21
38.49481
  31
0
  0
LINE
  8
0
  10
63.27788
  20
38.49481
  30
0
  11
63.418
  21
38.43369
  31
0
  0
LINE
  8
0
  10
63.418
  20
38.43369
  30
0
  11
63.69984
  21
38.29517
  31
0
  0
LINE
  8
0
  10
63.69984
  20
38.29517
  30
0
  11
63.96123
  21
38.3
  31
0
  0
LINE
  8
0
  10
63.96123
  20
38.3
  30
0
  11
64.48976
  21
38.26624
  31
0
  0
LINE
  8
0
  10
64.48976
  20
38.26624
  30
0
  11
65.02331
  21
38.19135
  31
0
  0
LINE
  8
0
  10
65.02331
  20
38.19135
  30
0
  11
65.56035
  21
38.08296
  31
0
  0
LINE
  8
0
  10
65.56035
  20
38.08296
  30
0
  11
66.09994
  21
37.9449
  31
0
  0
LINE
  8
0
  10
66.09994
  20
37.9449
  30
0
  11
66.64129
  21
37.77953
  31
0
  0
LINE
  8
0
  10
66.64129
  20
37.77953
  30
0
  11
67.18376
  21
37.58846
  31
0
  0
LINE
  8
0
  10
67.18376
  20
37.58846
  30
0
  11
67.72673
  21
37.37286
  31
0
  0
LINE
  8
0
  10
67.72673
  20
37.37286
  30
0
  11
68.26964
  21
37.1336
  31
0
  0
LINE
  8
0
  10
68.26964
  20
37.1336
  30
0
  11
68.36891
  21
35.55575
  31
0
  0
LINE
  8
0
  10
68.36891
  20
35.55575
  30
0
  11
67.86027
  21
35.25033
  31
0
  0
LINE
  8
0
  10
67.86027
  20
35.25033
  30
0
  11
67.3486
  21
34.96837
  31
0
  0
LINE
  8
0
  10
67.3486
  20
34.96837
  30
0
  11
66.83436
  21
34.71082
  31
0
  0
LINE
  8
0
  10
66.83436
  20
34.71082
  30
0
  11
66.318
  21
34.47891
  31
0
  0
LINE
  8
0
  10
66.318
  20
34.47891
  30
0
  11
65.79997
  21
34.27431
  31
0
  0
LINE
  8
0
  10
65.79997
  20
34.27431
  30
0
  11
65.28074
  21
34.09946
  31
0
  0
LINE
  8
0
  10
65.28074
  20
34.09946
  30
0
  11
64.7608
  21
33.95829
  31
0
  0
LINE
  8
0
  10
64.7608
  20
33.95829
  30
0
  11
64.24066
  21
33.85856
  31
0
  0
LINE
  8
0
  10
64.24066
  20
33.85856
  30
0
  11
63.98073
  21
33.83058
  31
0
  0
LINE
  8
0
  10
63.98073
  20
33.83058
  30
0
  11
63.71847
  21
33.65784
  31
0
  0
LINE
  8
0
  10
63.71847
  20
33.65784
  30
0
  11
63.58712
  21
33.57964
  31
0
  0
LINE
  8
0
  10
63.58712
  20
33.57964
  30
0
  11
63.45499
  21
33.47882
  31
0
  0
LINE
  8
0
  10
63.45499
  20
33.47882
  30
0
  11
63.32131
  21
33.33666
  31
0
  0
LINE
  8
0
  10
63.32131
  20
33.33666
  30
0
  11
63.17788
  21
32.96133
  31
0
  0
LINE
  8
0
  10
63.17788
  20
32.96133
  30
0
  11
63.12625
  21
32.07218
  31
0
  0
LINE
  8
0
  10
22.79863
  20
34.19794
  30
0
  11
45.59725
  21
34.19794
  31
0
  0
LINE
  8
0
  10
34.19794
  20
22.79863
  30
0
  11
34.19794
  21
45.59725
  31
0
  0
ENDSEC
  0
EOF
