  999
file created by gear template generator
  0
SECTION
  2
HEADER
  9
$ACADVER
  1
AC1006
  9
$INSBASE
  10
0.0
  20
0.0
  30
0.0
  9
$EXTMIN
  10
0.0
  20
0.0
  9
$EXTMAX
  10
10000.0
  20
10000.0
  0
ENDSEC
  0
SECTION
  2
ENTITIES
  0
LINE
  8
0
  10
5.96436
  20
10.98542
  30
0
  11
5.96436
  21
10.98542
  31
0
  0
LINE
  8
0
  10
5.96436
  20
10.98542
  30
0
  11
5.76864
  21
11.23482
  31
0
  0
LINE
  8
0
  10
5.76864
  20
11.23482
  30
0
  11
5.64574
  21
11.31338
  31
0
  0
LINE
  8
0
  10
5.64574
  20
11.31338
  30
0
  11
5.5353
  21
11.36196
  31
0
  0
LINE
  8
0
  10
5.5353
  20
11.36196
  30
0
  11
5.43147
  21
11.39425
  31
0
  0
LINE
  8
0
  10
5.43147
  20
11.39425
  30
0
  11
5.33198
  21
11.41558
  31
0
  0
LINE
  8
0
  10
5.33198
  20
11.41558
  30
0
  11
5.23563
  21
11.42875
  31
0
  0
LINE
  8
0
  10
5.23563
  20
11.42875
  30
0
  11
5.04982
  21
11.43665
  31
0
  0
LINE
  8
0
  10
5.04982
  20
11.43665
  30
0
  11
4.87077
  21
11.42579
  31
0
  0
LINE
  8
0
  10
4.87077
  20
11.42579
  30
0
  11
4.69682
  21
11.40024
  31
0
  0
LINE
  8
0
  10
4.69682
  20
11.40024
  30
0
  11
4.36074
  21
11.31408
  31
0
  0
LINE
  8
0
  10
4.36074
  20
11.31408
  30
0
  11
4.03732
  21
11.18977
  31
0
  0
LINE
  8
0
  10
4.03732
  20
11.18977
  30
0
  11
3.70706
  21
11.08609
  31
0
  0
LINE
  8
0
  10
3.70706
  20
11.08609
  30
0
  11
3.35014
  21
11.06386
  31
0
  0
LINE
  8
0
  10
3.35014
  20
11.06386
  30
0
  11
2.98224
  21
11.0788
  31
0
  0
LINE
  8
0
  10
2.98224
  20
11.0788
  30
0
  11
2.60633
  21
11.12482
  31
0
  0
LINE
  8
0
  10
2.60633
  20
11.12482
  30
0
  11
2.22425
  21
11.19909
  31
0
  0
LINE
  8
0
  10
2.22425
  20
11.19909
  30
0
  11
1.83748
  21
11.30003
  31
0
  0
LINE
  8
0
  10
1.83748
  20
11.30003
  30
0
  11
1.44728
  21
11.42661
  31
0
  0
LINE
  8
0
  10
1.44728
  20
11.42661
  30
0
  11
1.05482
  21
11.57817
  31
0
  0
LINE
  8
0
  10
1.05482
  20
11.57817
  30
0
  11
0.66118
  21
11.75421
  31
0
  0
LINE
  8
0
  10
0.66118
  20
11.75421
  30
0
  11
0.26744
  21
11.95436
  31
0
  0
LINE
  8
0
  10
0.26744
  20
11.95436
  30
0
  11
0.09058
  21
13.11833
  31
0
  0
LINE
  8
0
  10
0.09058
  20
13.11833
  30
0
  11
0.40709
  21
13.42641
  31
0
  0
LINE
  8
0
  10
0.40709
  20
13.42641
  30
0
  11
0.73067
  21
13.71143
  31
0
  0
LINE
  8
0
  10
0.73067
  20
13.71143
  30
0
  11
1.0604
  21
13.97272
  31
0
  0
LINE
  8
0
  10
1.0604
  20
13.97272
  30
0
  11
1.39539
  21
14.2095
  31
0
  0
LINE
  8
0
  10
1.39539
  20
14.2095
  30
0
  11
1.73472
  21
14.42077
  31
0
  0
LINE
  8
0
  10
1.73472
  20
14.42077
  30
0
  11
2.07749
  21
14.60518
  31
0
  0
LINE
  8
0
  10
2.07749
  20
14.60518
  30
0
  11
2.42277
  21
14.76078
  31
0
  0
LINE
  8
0
  10
2.42277
  20
14.76078
  30
0
  11
2.76962
  21
14.88433
  31
0
  0
LINE
  8
0
  10
2.76962
  20
14.88433
  30
0
  11
3.11703
  21
14.96912
  31
0
  0
LINE
  8
0
  10
3.11703
  20
14.96912
  30
0
  11
3.46319
  21
14.96822
  31
0
  0
LINE
  8
0
  10
3.46319
  20
14.96822
  30
0
  11
3.80894
  21
14.94559
  31
0
  0
LINE
  8
0
  10
3.80894
  20
14.94559
  30
0
  11
4.15544
  21
14.96315
  31
0
  0
LINE
  8
0
  10
4.15544
  20
14.96315
  30
0
  11
4.32912
  21
14.99042
  31
0
  0
LINE
  8
0
  10
4.32912
  20
14.99042
  30
0
  11
4.50332
  21
15.03323
  31
0
  0
LINE
  8
0
  10
4.50332
  20
15.03323
  30
0
  11
4.67839
  21
15.09598
  31
0
  0
LINE
  8
0
  10
4.67839
  20
15.09598
  30
0
  11
4.76648
  21
15.13717
  31
0
  0
LINE
  8
0
  10
4.76648
  20
15.13717
  30
0
  11
4.85515
  21
15.18709
  31
0
  0
LINE
  8
0
  10
4.85515
  20
15.18709
  30
0
  11
4.9447
  21
15.24876
  31
0
  0
LINE
  8
0
  10
4.9447
  20
15.24876
  30
0
  11
5.03573
  21
15.32796
  31
0
  0
LINE
  8
0
  10
5.03573
  20
15.32796
  30
0
  11
5.12975
  21
15.43948
  31
0
  0
LINE
  8
0
  10
5.12975
  20
15.43948
  30
0
  11
5.24255
  21
15.73576
  31
0
  0
LINE
  8
0
  10
5.24255
  20
15.73576
  30
0
  11
5.3189
  21
16.3051
  31
0
  0
LINE
  8
0
  10
5.3189
  20
16.3051
  30
0
  11
5.42931
  21
16.86883
  31
0
  0
LINE
  8
0
  10
5.42931
  20
16.86883
  30
0
  11
5.41757
  21
17.18564
  31
0
  0
LINE
  8
0
  10
5.41757
  20
17.18564
  30
0
  11
5.36431
  21
17.32143
  31
0
  0
LINE
  8
0
  10
5.36431
  20
17.32143
  30
0
  11
5.30352
  21
17.42566
  31
0
  0
LINE
  8
0
  10
5.30352
  20
17.42566
  30
0
  11
5.2385
  21
17.51281
  31
0
  0
LINE
  8
0
  10
5.2385
  20
17.51281
  30
0
  11
5.17055
  21
17.58855
  31
0
  0
LINE
  8
0
  10
5.17055
  20
17.58855
  30
0
  11
5.10034
  21
17.65583
  31
0
  0
LINE
  8
0
  10
5.10034
  20
17.65583
  30
0
  11
4.95466
  21
17.77144
  31
0
  0
LINE
  8
0
  10
4.95466
  20
17.77144
  30
0
  11
4.80342
  21
17.8679
  31
0
  0
LINE
  8
0
  10
4.80342
  20
17.8679
  30
0
  11
4.64768
  21
17.94947
  31
0
  0
LINE
  8
0
  10
4.64768
  20
17.94947
  30
0
  11
4.32514
  21
18.07731
  31
0
  0
LINE
  8
0
  10
4.32514
  20
18.07731
  30
0
  11
3.99042
  21
18.16684
  31
0
  0
LINE
  8
0
  10
3.99042
  20
18.16684
  30
0
  11
3.66229
  21
18.27708
  31
0
  0
LINE
  8
0
  10
3.66229
  20
18.27708
  30
0
  11
3.36047
  21
18.46889
  31
0
  0
LINE
  8
0
  10
3.36047
  20
18.46889
  30
0
  11
3.07162
  21
18.69723
  31
0
  0
LINE
  8
0
  10
3.07162
  20
18.69723
  30
0
  11
2.79454
  21
18.95541
  31
0
  0
LINE
  8
0
  10
2.79454
  20
18.95541
  30
0
  11
2.5291
  21
19.24008
  31
0
  0
LINE
  8
0
  10
2.5291
  20
19.24008
  30
0
  11
2.27552
  21
19.54907
  31
0
  0
LINE
  8
0
  10
2.27552
  20
19.54907
  30
0
  11
2.03425
  21
19.88084
  31
0
  0
LINE
  8
0
  10
2.03425
  20
19.88084
  30
0
  11
1.80582
  21
20.23413
  31
0
  0
LINE
  8
0
  10
1.80582
  20
20.23413
  30
0
  11
1.59084
  21
20.60792
  31
0
  0
LINE
  8
0
  10
1.59084
  20
20.60792
  30
0
  11
1.38994
  21
21.00129
  31
0
  0
LINE
  8
0
  10
1.38994
  20
21.00129
  30
0
  11
1.93102
  21
22.04692
  31
0
  0
LINE
  8
0
  10
1.93102
  20
22.04692
  30
0
  11
2.36817
  21
22.11011
  31
0
  0
LINE
  8
0
  10
2.36817
  20
22.11011
  30
0
  11
2.79747
  21
22.1505
  31
0
  0
LINE
  8
0
  10
2.79747
  20
22.1505
  30
0
  11
3.21782
  21
22.16808
  31
0
  0
LINE
  8
0
  10
3.21782
  20
22.16808
  30
0
  11
3.628
  21
22.16274
  31
0
  0
LINE
  8
0
  10
3.628
  20
22.16274
  30
0
  11
4.02671
  21
22.13421
  31
0
  0
LINE
  8
0
  10
4.02671
  20
22.13421
  30
0
  11
4.41241
  21
22.08193
  31
0
  0
LINE
  8
0
  10
4.41241
  20
22.08193
  30
0
  11
4.7832
  21
22.00486
  31
0
  0
LINE
  8
0
  10
4.7832
  20
22.00486
  30
0
  11
5.13643
  21
21.90094
  31
0
  0
LINE
  8
0
  10
5.13643
  20
21.90094
  30
0
  11
5.46734
  21
21.76533
  31
0
  0
LINE
  8
0
  10
5.46734
  20
21.76533
  30
0
  11
5.74685
  21
21.56114
  31
0
  0
LINE
  8
0
  10
5.74685
  20
21.56114
  30
0
  11
6.01327
  21
21.33961
  31
0
  0
LINE
  8
0
  10
6.01327
  20
21.33961
  30
0
  11
6.30392
  21
21.15014
  31
0
  0
LINE
  8
0
  10
6.30392
  20
21.15014
  30
0
  11
6.46046
  21
21.07012
  31
0
  0
LINE
  8
0
  10
6.46046
  20
21.07012
  30
0
  11
6.62655
  21
21.00236
  31
0
  0
LINE
  8
0
  10
6.62655
  20
21.00236
  30
0
  11
6.80507
  21
20.95022
  31
0
  0
LINE
  8
0
  10
6.80507
  20
20.95022
  30
0
  11
6.90055
  21
20.93176
  31
0
  0
LINE
  8
0
  10
6.90055
  20
20.93176
  30
0
  11
7.00163
  21
20.92004
  31
0
  0
LINE
  8
0
  10
7.00163
  20
20.92004
  30
0
  11
7.11032
  21
20.91729
  31
0
  0
LINE
  8
0
  10
7.11032
  20
20.91729
  30
0
  11
7.23052
  21
20.92786
  31
0
  0
LINE
  8
0
  10
7.23052
  20
20.92786
  30
0
  11
7.37212
  21
20.96282
  31
0
  0
LINE
  8
0
  10
7.37212
  20
20.96282
  30
0
  11
7.63753
  21
21.13621
  31
0
  0
LINE
  8
0
  10
7.63753
  20
21.13621
  30
0
  11
8.03396
  21
21.55194
  31
0
  0
LINE
  8
0
  10
8.03396
  20
21.55194
  30
0
  11
8.45464
  21
21.94311
  31
0
  0
LINE
  8
0
  10
8.45464
  20
21.94311
  30
0
  11
8.63135
  21
22.20632
  31
0
  0
LINE
  8
0
  10
8.63135
  20
22.20632
  30
0
  11
8.66808
  21
22.34747
  31
0
  0
LINE
  8
0
  10
8.66808
  20
22.34747
  30
0
  11
8.68016
  21
22.46753
  31
0
  0
LINE
  8
0
  10
8.68016
  20
22.46753
  30
0
  11
8.67878
  21
22.57625
  31
0
  0
LINE
  8
0
  10
8.67878
  20
22.57625
  30
0
  11
8.66833
  21
22.67747
  31
0
  0
LINE
  8
0
  10
8.66833
  20
22.67747
  30
0
  11
8.65107
  21
22.77317
  31
0
  0
LINE
  8
0
  10
8.65107
  20
22.77317
  30
0
  11
8.60117
  21
22.95233
  31
0
  0
LINE
  8
0
  10
8.60117
  20
22.95233
  30
0
  11
8.53551
  21
23.11926
  31
0
  0
LINE
  8
0
  10
8.53551
  20
23.11926
  30
0
  11
8.45746
  21
23.27679
  31
0
  0
LINE
  8
0
  10
8.45746
  20
23.27679
  30
0
  11
8.27167
  21
23.5698
  31
0
  0
LINE
  8
0
  10
8.27167
  20
23.5698
  30
0
  11
8.0535
  21
23.83898
  31
0
  0
LINE
  8
0
  10
8.0535
  20
23.83898
  30
0
  11
7.85283
  21
24.12103
  31
0
  0
LINE
  8
0
  10
7.85283
  20
24.12103
  30
0
  11
7.72139
  21
24.45362
  31
0
  0
LINE
  8
0
  10
7.72139
  20
24.45362
  30
0
  11
7.62192
  21
24.80813
  31
0
  0
LINE
  8
0
  10
7.62192
  20
24.80813
  30
0
  11
7.54952
  21
25.17986
  31
0
  0
LINE
  8
0
  10
7.54952
  20
25.17986
  30
0
  11
7.50209
  21
25.56619
  31
0
  0
LINE
  8
0
  10
7.50209
  20
25.56619
  30
0
  11
7.47857
  21
25.96522
  31
0
  0
LINE
  8
0
  10
7.47857
  20
25.96522
  30
0
  11
7.47838
  21
26.37544
  31
0
  0
LINE
  8
0
  10
7.47838
  20
26.37544
  30
0
  11
7.50124
  21
26.79553
  31
0
  0
LINE
  8
0
  10
7.50124
  20
26.79553
  30
0
  11
7.54702
  21
27.2243
  31
0
  0
LINE
  8
0
  10
7.54702
  20
27.2243
  30
0
  11
7.61571
  21
27.66062
  31
0
  0
LINE
  8
0
  10
7.61571
  20
27.66062
  30
0
  11
8.66805
  21
28.18851
  31
0
  0
LINE
  8
0
  10
8.66805
  20
28.18851
  30
0
  11
9.05886
  21
27.98269
  31
0
  0
LINE
  8
0
  10
9.05886
  20
27.98269
  30
0
  11
9.42992
  21
27.76303
  31
0
  0
LINE
  8
0
  10
9.42992
  20
27.76303
  30
0
  11
9.78032
  21
27.53018
  31
0
  0
LINE
  8
0
  10
9.78032
  20
27.53018
  30
0
  11
10.10903
  21
27.28475
  31
0
  0
LINE
  8
0
  10
10.10903
  20
27.28475
  30
0
  11
10.41481
  21
27.02731
  31
0
  0
LINE
  8
0
  10
10.41481
  20
27.02731
  30
0
  11
10.69612
  21
26.75831
  31
0
  0
LINE
  8
0
  10
10.69612
  20
26.75831
  30
0
  11
10.9508
  21
26.47801
  31
0
  0
LINE
  8
0
  10
10.9508
  20
26.47801
  30
0
  11
11.17549
  21
26.18632
  31
0
  0
LINE
  8
0
  10
11.17549
  20
26.18632
  30
0
  11
11.36349
  21
25.88211
  31
0
  0
LINE
  8
0
  10
11.36349
  20
25.88211
  30
0
  11
11.4696
  21
25.55262
  31
0
  0
LINE
  8
0
  10
11.4696
  20
25.55262
  30
0
  11
11.55492
  21
25.2168
  31
0
  0
LINE
  8
0
  10
11.55492
  20
25.2168
  30
0
  11
11.67869
  21
24.89268
  31
0
  0
LINE
  8
0
  10
11.67869
  20
24.89268
  30
0
  11
11.7583
  21
24.73592
  31
0
  0
LINE
  8
0
  10
11.7583
  20
24.73592
  30
0
  11
11.85285
  21
24.58349
  31
0
  0
LINE
  8
0
  10
11.85285
  20
24.58349
  30
0
  11
11.96662
  21
24.43637
  31
0
  0
LINE
  8
0
  10
11.96662
  20
24.43637
  30
0
  11
12.03302
  21
24.36532
  31
0
  0
LINE
  8
0
  10
12.03302
  20
24.36532
  30
0
  11
12.1079
  21
24.29642
  31
0
  0
LINE
  8
0
  10
12.1079
  20
24.29642
  30
0
  11
12.19422
  21
24.2303
  31
0
  0
LINE
  8
0
  10
12.19422
  20
24.2303
  30
0
  11
12.29768
  21
24.16821
  31
0
  0
LINE
  8
0
  10
12.29768
  20
24.16821
  30
0
  11
12.43278
  21
24.11325
  31
0
  0
LINE
  8
0
  10
12.43278
  20
24.11325
  30
0
  11
12.74942
  21
24.09753
  31
0
  0
LINE
  8
0
  10
12.74942
  20
24.09753
  30
0
  11
13.3145
  21
24.20085
  31
0
  0
LINE
  8
0
  10
13.3145
  20
24.20085
  30
0
  11
13.88476
  21
24.27004
  31
0
  0
LINE
  8
0
  10
13.88476
  20
24.27004
  30
0
  11
14.18243
  21
24.37911
  31
0
  0
LINE
  8
0
  10
14.18243
  20
24.37911
  30
0
  11
14.29512
  21
24.47172
  31
0
  0
LINE
  8
0
  10
14.29512
  20
24.47172
  30
0
  11
14.37546
  21
24.56174
  31
0
  0
LINE
  8
0
  10
14.37546
  20
24.56174
  30
0
  11
14.43824
  21
24.65051
  31
0
  0
LINE
  8
0
  10
14.43824
  20
24.65051
  30
0
  11
14.48928
  21
24.73855
  31
0
  0
LINE
  8
0
  10
14.48928
  20
24.73855
  30
0
  11
14.53157
  21
24.82611
  31
0
  0
LINE
  8
0
  10
14.53157
  20
24.82611
  30
0
  11
14.59651
  21
25.00039
  31
0
  0
LINE
  8
0
  10
14.59651
  20
25.00039
  30
0
  11
14.64151
  21
25.17403
  31
0
  0
LINE
  8
0
  10
14.64151
  20
25.17403
  30
0
  11
14.67096
  21
25.34735
  31
0
  0
LINE
  8
0
  10
14.67096
  20
25.34735
  30
0
  11
14.69287
  21
25.69361
  31
0
  0
LINE
  8
0
  10
14.69287
  20
25.69361
  30
0
  11
14.67459
  21
26.03962
  31
0
  0
LINE
  8
0
  10
14.67459
  20
26.03962
  30
0
  11
14.67804
  21
26.38575
  31
0
  0
LINE
  8
0
  10
14.67804
  20
26.38575
  30
0
  11
14.76719
  21
26.73208
  31
0
  0
LINE
  8
0
  10
14.76719
  20
26.73208
  30
0
  11
14.89509
  21
27.07735
  31
0
  0
LINE
  8
0
  10
14.89509
  20
27.07735
  30
0
  11
15.05502
  21
27.42065
  31
0
  0
LINE
  8
0
  10
15.05502
  20
27.42065
  30
0
  11
15.24372
  21
27.76107
  31
0
  0
LINE
  8
0
  10
15.24372
  20
27.76107
  30
0
  11
15.45924
  21
28.09772
  31
0
  0
LINE
  8
0
  10
15.45924
  20
28.09772
  30
0
  11
15.70021
  21
28.4297
  31
0
  0
LINE
  8
0
  10
15.70021
  20
28.4297
  30
0
  11
15.96562
  21
28.75613
  31
0
  0
LINE
  8
0
  10
15.96562
  20
28.75613
  30
0
  11
16.25469
  21
29.07609
  31
0
  0
LINE
  8
0
  10
16.25469
  20
29.07609
  30
0
  11
16.56672
  21
29.38871
  31
0
  0
LINE
  8
0
  10
16.56672
  20
29.38871
  30
0
  11
17.72837
  21
29.19724
  31
0
  0
LINE
  8
0
  10
17.72837
  20
29.19724
  30
0
  11
17.92356
  21
28.80101
  31
0
  0
LINE
  8
0
  10
17.92356
  20
28.80101
  30
0
  11
18.09464
  21
28.4052
  31
0
  0
LINE
  8
0
  10
18.09464
  20
28.4052
  30
0
  11
18.24125
  21
28.01086
  31
0
  0
LINE
  8
0
  10
18.24125
  20
28.01086
  30
0
  11
18.36293
  21
27.6191
  31
0
  0
LINE
  8
0
  10
18.36293
  20
27.6191
  30
0
  11
18.45899
  21
27.23109
  31
0
  0
LINE
  8
0
  10
18.45899
  20
27.23109
  30
0
  11
18.52846
  21
26.84811
  31
0
  0
LINE
  8
0
  10
18.52846
  20
26.84811
  30
0
  11
18.56975
  21
26.47165
  31
0
  0
LINE
  8
0
  10
18.56975
  20
26.47165
  30
0
  11
18.58007
  21
26.10359
  31
0
  0
LINE
  8
0
  10
18.58007
  20
26.10359
  30
0
  11
18.55335
  21
25.74698
  31
0
  0
LINE
  8
0
  10
18.55335
  20
25.74698
  30
0
  11
18.44553
  21
25.41805
  31
0
  0
LINE
  8
0
  10
18.44553
  20
25.41805
  30
0
  11
18.31716
  21
25.09621
  31
0
  0
LINE
  8
0
  10
18.31716
  20
25.09621
  30
0
  11
18.22679
  21
24.76124
  31
0
  0
LINE
  8
0
  10
18.22679
  20
24.76124
  30
0
  11
18.19905
  21
24.58763
  31
0
  0
LINE
  8
0
  10
18.19905
  20
24.58763
  30
0
  11
18.18594
  21
24.40874
  31
0
  0
LINE
  8
0
  10
18.18594
  20
24.40874
  30
0
  11
18.19151
  21
24.22284
  31
0
  0
LINE
  8
0
  10
18.19151
  20
24.22284
  30
0
  11
18.20347
  21
24.12633
  31
0
  0
LINE
  8
0
  10
18.20347
  20
24.12633
  30
0
  11
18.22355
  21
24.02657
  31
0
  0
LINE
  8
0
  10
18.22355
  20
24.02657
  30
0
  11
18.25452
  21
23.92235
  31
0
  0
LINE
  8
0
  10
18.25452
  20
23.92235
  30
0
  11
18.30172
  21
23.81131
  31
0
  0
LINE
  8
0
  10
18.30172
  20
23.81131
  30
0
  11
18.37873
  21
23.68743
  31
0
  0
LINE
  8
0
  10
18.37873
  20
23.68743
  30
0
  11
18.62565
  21
23.48859
  31
0
  0
LINE
  8
0
  10
18.62565
  20
23.48859
  30
0
  11
19.14353
  21
23.24004
  31
0
  0
LINE
  8
0
  10
19.14353
  20
23.24004
  30
0
  11
19.64555
  21
22.96083
  31
0
  0
LINE
  8
0
  10
19.64555
  20
22.96083
  30
0
  11
19.95049
  21
22.8741
  31
0
  0
LINE
  8
0
  10
19.95049
  20
22.8741
  30
0
  11
20.09609
  21
22.88278
  31
0
  0
LINE
  8
0
  10
20.09609
  20
22.88278
  30
0
  11
20.214
  21
22.90839
  31
0
  0
LINE
  8
0
  10
20.214
  20
22.90839
  30
0
  11
20.31697
  21
22.9433
  31
0
  0
LINE
  8
0
  10
20.31697
  20
22.9433
  30
0
  11
20.41001
  21
22.98452
  31
0
  0
LINE
  8
0
  10
20.41001
  20
22.98452
  30
0
  11
20.49569
  21
23.03051
  31
0
  0
LINE
  8
0
  10
20.49569
  20
23.03051
  30
0
  11
20.65066
  21
23.13333
  31
0
  0
LINE
  8
0
  10
20.65066
  20
23.13333
  30
0
  11
20.78913
  21
23.24736
  31
0
  0
LINE
  8
0
  10
20.78913
  20
23.24736
  30
0
  11
20.91484
  21
23.37027
  31
0
  0
LINE
  8
0
  10
20.91484
  20
23.37027
  30
0
  11
21.13609
  21
23.63752
  31
0
  0
LINE
  8
0
  10
21.13609
  20
23.63752
  30
0
  11
21.32468
  21
23.92819
  31
0
  0
LINE
  8
0
  10
21.32468
  20
23.92819
  30
0
  11
21.53092
  21
24.20619
  31
0
  0
LINE
  8
0
  10
21.53092
  20
24.20619
  30
0
  11
21.80661
  21
24.43397
  31
0
  0
LINE
  8
0
  10
21.80661
  20
24.43397
  30
0
  11
22.11302
  21
24.63813
  31
0
  0
LINE
  8
0
  10
22.11302
  20
24.63813
  30
0
  11
22.44419
  21
24.82186
  31
0
  0
LINE
  8
0
  10
22.44419
  20
24.82186
  30
0
  11
22.79695
  21
24.98634
  31
0
  0
LINE
  8
0
  10
22.79695
  20
24.98634
  30
0
  11
23.16919
  21
25.13202
  31
0
  0
LINE
  8
0
  10
23.16919
  20
25.13202
  30
0
  11
23.55927
  21
25.25897
  31
0
  0
LINE
  8
0
  10
23.55927
  20
25.25897
  30
0
  11
23.96587
  21
25.36704
  31
0
  0
LINE
  8
0
  10
23.96587
  20
25.36704
  30
0
  11
24.38779
  21
25.45599
  31
0
  0
LINE
  8
0
  10
24.38779
  20
25.45599
  30
0
  11
24.82398
  21
25.5255
  31
0
  0
LINE
  8
0
  10
24.82398
  20
25.5255
  30
0
  11
25.65124
  21
24.68779
  31
0
  0
LINE
  8
0
  10
25.65124
  20
24.68779
  30
0
  11
25.57625
  21
24.25251
  31
0
  0
LINE
  8
0
  10
25.57625
  20
24.25251
  30
0
  11
25.482
  21
23.83173
  31
0
  0
LINE
  8
0
  10
25.482
  20
23.83173
  30
0
  11
25.36883
  21
23.42653
  31
0
  0
LINE
  8
0
  10
25.36883
  20
23.42653
  30
0
  11
25.23699
  21
23.03807
  31
0
  0
LINE
  8
0
  10
25.23699
  20
23.03807
  30
0
  11
25.08665
  21
22.6677
  31
0
  0
LINE
  8
0
  10
25.08665
  20
22.6677
  30
0
  11
24.91774
  21
22.31703
  31
0
  0
LINE
  8
0
  10
24.91774
  20
22.31703
  30
0
  11
24.72986
  21
21.98819
  31
0
  0
LINE
  8
0
  10
24.72986
  20
21.98819
  30
0
  11
24.52187
  21
21.68437
  31
0
  0
LINE
  8
0
  10
24.52187
  20
21.68437
  30
0
  11
24.29065
  21
21.41156
  31
0
  0
LINE
  8
0
  10
24.29065
  20
21.41156
  30
0
  11
24.01007
  21
21.20883
  31
0
  0
LINE
  8
0
  10
24.01007
  20
21.20883
  30
0
  11
23.71706
  21
21.02391
  31
0
  0
LINE
  8
0
  10
23.71706
  20
21.02391
  30
0
  11
23.44705
  21
20.80603
  31
0
  0
LINE
  8
0
  10
23.44705
  20
20.80603
  30
0
  11
23.32257
  21
20.68188
  31
0
  0
LINE
  8
0
  10
23.32257
  20
20.68188
  30
0
  11
23.20681
  21
20.54486
  31
0
  0
LINE
  8
0
  10
23.20681
  20
20.54486
  30
0
  11
23.10205
  21
20.39119
  31
0
  0
LINE
  8
0
  10
23.10205
  20
20.39119
  30
0
  11
23.05499
  21
20.30609
  31
0
  0
LINE
  8
0
  10
23.05499
  20
20.30609
  30
0
  11
23.0126
  21
20.21358
  31
0
  0
LINE
  8
0
  10
23.0126
  20
20.21358
  30
0
  11
22.9764
  21
20.11105
  31
0
  0
LINE
  8
0
  10
22.9764
  20
20.11105
  30
0
  11
22.94932
  21
19.99347
  31
0
  0
LINE
  8
0
  10
22.94932
  20
19.99347
  30
0
  11
22.9388
  21
19.84799
  31
0
  0
LINE
  8
0
  10
22.9388
  20
19.84799
  30
0
  11
23.02169
  21
19.542
  31
0
  0
LINE
  8
0
  10
23.02169
  20
19.542
  30
0
  11
23.29457
  21
19.03651
  31
0
  0
LINE
  8
0
  10
23.29457
  20
19.03651
  30
0
  11
23.5366
  21
18.51554
  31
0
  0
LINE
  8
0
  10
23.5366
  20
18.51554
  30
0
  11
23.73232
  21
18.26614
  31
0
  0
LINE
  8
0
  10
23.73232
  20
18.26614
  30
0
  11
23.85522
  21
18.18758
  31
0
  0
LINE
  8
0
  10
23.85522
  20
18.18758
  30
0
  11
23.96566
  21
18.13899
  31
0
  0
LINE
  8
0
  10
23.96566
  20
18.13899
  30
0
  11
24.06948
  21
18.10671
  31
0
  0
LINE
  8
0
  10
24.06948
  20
18.10671
  30
0
  11
24.16898
  21
18.08538
  31
0
  0
LINE
  8
0
  10
24.16898
  20
18.08538
  30
0
  11
24.26533
  21
18.07221
  31
0
  0
LINE
  8
0
  10
24.26533
  20
18.07221
  30
0
  11
24.45114
  21
18.06431
  31
0
  0
LINE
  8
0
  10
24.45114
  20
18.06431
  30
0
  11
24.63019
  21
18.07517
  31
0
  0
LINE
  8
0
  10
24.63019
  20
18.07517
  30
0
  11
24.80413
  21
18.10072
  31
0
  0
LINE
  8
0
  10
24.80413
  20
18.10072
  30
0
  11
25.14021
  21
18.18688
  31
0
  0
LINE
  8
0
  10
25.14021
  20
18.18688
  30
0
  11
25.46364
  21
18.31118
  31
0
  0
LINE
  8
0
  10
25.46364
  20
18.31118
  30
0
  11
25.7939
  21
18.41487
  31
0
  0
LINE
  8
0
  10
25.7939
  20
18.41487
  30
0
  11
26.15082
  21
18.4371
  31
0
  0
LINE
  8
0
  10
26.15082
  20
18.4371
  30
0
  11
26.51872
  21
18.42216
  31
0
  0
LINE
  8
0
  10
26.51872
  20
18.42216
  30
0
  11
26.89463
  21
18.37614
  31
0
  0
LINE
  8
0
  10
26.89463
  20
18.37614
  30
0
  11
27.27671
  21
18.30187
  31
0
  0
LINE
  8
0
  10
27.27671
  20
18.30187
  30
0
  11
27.66348
  21
18.20093
  31
0
  0
LINE
  8
0
  10
27.66348
  20
18.20093
  30
0
  11
28.05368
  21
18.07435
  31
0
  0
LINE
  8
0
  10
28.05368
  20
18.07435
  30
0
  11
28.44614
  21
17.92279
  31
0
  0
LINE
  8
0
  10
28.44614
  20
17.92279
  30
0
  11
28.83977
  21
17.74675
  31
0
  0
LINE
  8
0
  10
28.83977
  20
17.74675
  30
0
  11
29.23352
  21
17.5466
  31
0
  0
LINE
  8
0
  10
29.23352
  20
17.5466
  30
0
  11
29.41038
  21
16.38263
  31
0
  0
LINE
  8
0
  10
29.41038
  20
16.38263
  30
0
  11
29.09387
  21
16.07455
  31
0
  0
LINE
  8
0
  10
29.09387
  20
16.07455
  30
0
  11
28.77029
  21
15.78953
  31
0
  0
LINE
  8
0
  10
28.77029
  20
15.78953
  30
0
  11
28.44056
  21
15.52824
  31
0
  0
LINE
  8
0
  10
28.44056
  20
15.52824
  30
0
  11
28.10557
  21
15.29146
  31
0
  0
LINE
  8
0
  10
28.10557
  20
15.29146
  30
0
  11
27.76624
  21
15.08019
  31
0
  0
LINE
  8
0
  10
27.76624
  20
15.08019
  30
0
  11
27.42347
  21
14.89578
  31
0
  0
LINE
  8
0
  10
27.42347
  20
14.89578
  30
0
  11
27.07819
  21
14.74018
  31
0
  0
LINE
  8
0
  10
27.07819
  20
14.74018
  30
0
  11
26.73134
  21
14.61663
  31
0
  0
LINE
  8
0
  10
26.73134
  20
14.61663
  30
0
  11
26.38392
  21
14.53184
  31
0
  0
LINE
  8
0
  10
26.38392
  20
14.53184
  30
0
  11
26.03777
  21
14.53274
  31
0
  0
LINE
  8
0
  10
26.03777
  20
14.53274
  30
0
  11
25.69202
  21
14.55537
  31
0
  0
LINE
  8
0
  10
25.69202
  20
14.55537
  30
0
  11
25.34552
  21
14.53781
  31
0
  0
LINE
  8
0
  10
25.34552
  20
14.53781
  30
0
  11
25.17184
  21
14.51054
  31
0
  0
LINE
  8
0
  10
25.17184
  20
14.51054
  30
0
  11
24.99764
  21
14.46772
  31
0
  0
LINE
  8
0
  10
24.99764
  20
14.46772
  30
0
  11
24.82257
  21
14.40498
  31
0
  0
LINE
  8
0
  10
24.82257
  20
14.40498
  30
0
  11
24.73448
  21
14.36379
  31
0
  0
LINE
  8
0
  10
24.73448
  20
14.36379
  30
0
  11
24.64581
  21
14.31387
  31
0
  0
LINE
  8
0
  10
24.64581
  20
14.31387
  30
0
  11
24.55626
  21
14.2522
  31
0
  0
LINE
  8
0
  10
24.55626
  20
14.2522
  30
0
  11
24.46523
  21
14.173
  31
0
  0
LINE
  8
0
  10
24.46523
  20
14.173
  30
0
  11
24.37121
  21
14.06148
  31
0
  0
LINE
  8
0
  10
24.37121
  20
14.06148
  30
0
  11
24.25841
  21
13.7652
  31
0
  0
LINE
  8
0
  10
24.25841
  20
13.7652
  30
0
  11
24.18206
  21
13.19586
  31
0
  0
LINE
  8
0
  10
24.18206
  20
13.19586
  30
0
  11
24.07164
  21
12.63212
  31
0
  0
LINE
  8
0
  10
24.07164
  20
12.63212
  30
0
  11
24.08339
  21
12.31531
  31
0
  0
LINE
  8
0
  10
24.08339
  20
12.31531
  30
0
  11
24.13664
  21
12.17953
  31
0
  0
LINE
  8
0
  10
24.13664
  20
12.17953
  30
0
  11
24.19743
  21
12.0753
  31
0
  0
LINE
  8
0
  10
24.19743
  20
12.0753
  30
0
  11
24.26246
  21
11.98815
  31
0
  0
LINE
  8
0
  10
24.26246
  20
11.98815
  30
0
  11
24.33041
  21
11.91241
  31
0
  0
LINE
  8
0
  10
24.33041
  20
11.91241
  30
0
  11
24.40062
  21
11.84513
  31
0
  0
LINE
  8
0
  10
24.40062
  20
11.84513
  30
0
  11
24.5463
  21
11.72951
  31
0
  0
LINE
  8
0
  10
24.5463
  20
11.72951
  30
0
  11
24.69754
  21
11.63306
  31
0
  0
LINE
  8
0
  10
24.69754
  20
11.63306
  30
0
  11
24.85328
  21
11.55149
  31
0
  0
LINE
  8
0
  10
24.85328
  20
11.55149
  30
0
  11
25.17582
  21
11.42365
  31
0
  0
LINE
  8
0
  10
25.17582
  20
11.42365
  30
0
  11
25.51054
  21
11.33411
  31
0
  0
LINE
  8
0
  10
25.51054
  20
11.33411
  30
0
  11
25.83867
  21
11.22388
  31
0
  0
LINE
  8
0
  10
25.83867
  20
11.22388
  30
0
  11
26.14049
  21
11.03207
  31
0
  0
LINE
  8
0
  10
26.14049
  20
11.03207
  30
0
  11
26.42934
  21
10.80373
  31
0
  0
LINE
  8
0
  10
26.42934
  20
10.80373
  30
0
  11
26.70642
  21
10.54555
  31
0
  0
LINE
  8
0
  10
26.70642
  20
10.54555
  30
0
  11
26.97186
  21
10.26088
  31
0
  0
LINE
  8
0
  10
26.97186
  20
10.26088
  30
0
  11
27.22544
  21
9.95189
  31
0
  0
LINE
  8
0
  10
27.22544
  20
9.95189
  30
0
  11
27.46671
  21
9.62012
  31
0
  0
LINE
  8
0
  10
27.46671
  20
9.62012
  30
0
  11
27.69514
  21
9.26682
  31
0
  0
LINE
  8
0
  10
27.69514
  20
9.26682
  30
0
  11
27.91012
  21
8.89303
  31
0
  0
LINE
  8
0
  10
27.91012
  20
8.89303
  30
0
  11
28.11102
  21
8.49967
  31
0
  0
LINE
  8
0
  10
28.11102
  20
8.49967
  30
0
  11
27.56994
  21
7.45404
  31
0
  0
LINE
  8
0
  10
27.56994
  20
7.45404
  30
0
  11
27.13279
  21
7.39085
  31
0
  0
LINE
  8
0
  10
27.13279
  20
7.39085
  30
0
  11
26.70348
  21
7.35045
  31
0
  0
LINE
  8
0
  10
26.70348
  20
7.35045
  30
0
  11
26.28314
  21
7.33287
  31
0
  0
LINE
  8
0
  10
26.28314
  20
7.33287
  30
0
  11
25.87296
  21
7.33822
  31
0
  0
LINE
  8
0
  10
25.87296
  20
7.33822
  30
0
  11
25.47425
  21
7.36675
  31
0
  0
LINE
  8
0
  10
25.47425
  20
7.36675
  30
0
  11
25.08855
  21
7.41903
  31
0
  0
LINE
  8
0
  10
25.08855
  20
7.41903
  30
0
  11
24.71775
  21
7.4961
  31
0
  0
LINE
  8
0
  10
24.71775
  20
7.4961
  30
0
  11
24.36452
  21
7.60002
  31
0
  0
LINE
  8
0
  10
24.36452
  20
7.60002
  30
0
  11
24.03362
  21
7.73563
  31
0
  0
LINE
  8
0
  10
24.03362
  20
7.73563
  30
0
  11
23.75411
  21
7.93982
  31
0
  0
LINE
  8
0
  10
23.75411
  20
7.93982
  30
0
  11
23.48769
  21
8.16135
  31
0
  0
LINE
  8
0
  10
23.48769
  20
8.16135
  30
0
  11
23.19704
  21
8.35082
  31
0
  0
LINE
  8
0
  10
23.19704
  20
8.35082
  30
0
  11
23.0405
  21
8.43084
  31
0
  0
LINE
  8
0
  10
23.0405
  20
8.43084
  30
0
  11
22.87441
  21
8.49859
  31
0
  0
LINE
  8
0
  10
22.87441
  20
8.49859
  30
0
  11
22.69589
  21
8.55074
  31
0
  0
LINE
  8
0
  10
22.69589
  20
8.55074
  30
0
  11
22.60041
  21
8.5692
  31
0
  0
LINE
  8
0
  10
22.60041
  20
8.5692
  30
0
  11
22.49933
  21
8.58092
  31
0
  0
LINE
  8
0
  10
22.49933
  20
8.58092
  30
0
  11
22.39064
  21
8.58367
  31
0
  0
LINE
  8
0
  10
22.39064
  20
8.58367
  30
0
  11
22.27044
  21
8.5731
  31
0
  0
LINE
  8
0
  10
22.27044
  20
8.5731
  30
0
  11
22.12883
  21
8.53814
  31
0
  0
LINE
  8
0
  10
22.12883
  20
8.53814
  30
0
  11
21.86343
  21
8.36475
  31
0
  0
LINE
  8
0
  10
21.86343
  20
8.36475
  30
0
  11
21.467
  21
7.94902
  31
0
  0
LINE
  8
0
  10
21.467
  20
7.94902
  30
0
  11
21.04632
  21
7.55785
  31
0
  0
LINE
  8
0
  10
21.04632
  20
7.55785
  30
0
  11
20.86961
  21
7.29464
  31
0
  0
LINE
  8
0
  10
20.86961
  20
7.29464
  30
0
  11
20.83288
  21
7.15348
  31
0
  0
LINE
  8
0
  10
20.83288
  20
7.15348
  30
0
  11
20.82079
  21
7.03343
  31
0
  0
LINE
  8
0
  10
20.82079
  20
7.03343
  30
0
  11
20.82218
  21
6.92471
  31
0
  0
LINE
  8
0
  10
20.82218
  20
6.92471
  30
0
  11
20.83263
  21
6.82349
  31
0
  0
LINE
  8
0
  10
20.83263
  20
6.82349
  30
0
  11
20.84989
  21
6.72779
  31
0
  0
LINE
  8
0
  10
20.84989
  20
6.72779
  30
0
  11
20.89979
  21
6.54863
  31
0
  0
LINE
  8
0
  10
20.89979
  20
6.54863
  30
0
  11
20.96544
  21
6.3817
  31
0
  0
LINE
  8
0
  10
20.96544
  20
6.3817
  30
0
  11
21.0435
  21
6.22417
  31
0
  0
LINE
  8
0
  10
21.0435
  20
6.22417
  30
0
  11
21.22929
  21
5.93116
  31
0
  0
LINE
  8
0
  10
21.22929
  20
5.93116
  30
0
  11
21.44746
  21
5.66198
  31
0
  0
LINE
  8
0
  10
21.44746
  20
5.66198
  30
0
  11
21.64813
  21
5.37992
  31
0
  0
LINE
  8
0
  10
21.64813
  20
5.37992
  30
0
  11
21.77956
  21
5.04734
  31
0
  0
LINE
  8
0
  10
21.77956
  20
5.04734
  30
0
  11
21.87904
  21
4.69283
  31
0
  0
LINE
  8
0
  10
21.87904
  20
4.69283
  30
0
  11
21.95144
  21
4.3211
  31
0
  0
LINE
  8
0
  10
21.95144
  20
4.3211
  30
0
  11
21.99887
  21
3.93477
  31
0
  0
LINE
  8
0
  10
21.99887
  20
3.93477
  30
0
  11
22.02239
  21
3.53574
  31
0
  0
LINE
  8
0
  10
22.02239
  20
3.53574
  30
0
  11
22.02258
  21
3.12552
  31
0
  0
LINE
  8
0
  10
22.02258
  20
3.12552
  30
0
  11
21.99972
  21
2.70543
  31
0
  0
LINE
  8
0
  10
21.99972
  20
2.70543
  30
0
  11
21.95394
  21
2.27666
  31
0
  0
LINE
  8
0
  10
21.95394
  20
2.27666
  30
0
  11
21.88525
  21
1.84034
  31
0
  0
LINE
  8
0
  10
21.88525
  20
1.84034
  30
0
  11
20.8329
  21
1.31245
  31
0
  0
LINE
  8
0
  10
20.8329
  20
1.31245
  30
0
  11
20.4421
  21
1.51827
  31
0
  0
LINE
  8
0
  10
20.4421
  20
1.51827
  30
0
  11
20.07104
  21
1.73793
  31
0
  0
LINE
  8
0
  10
20.07104
  20
1.73793
  30
0
  11
19.72064
  21
1.97078
  31
0
  0
LINE
  8
0
  10
19.72064
  20
1.97078
  30
0
  11
19.39193
  21
2.2162
  31
0
  0
LINE
  8
0
  10
19.39193
  20
2.2162
  30
0
  11
19.08615
  21
2.47364
  31
0
  0
LINE
  8
0
  10
19.08615
  20
2.47364
  30
0
  11
18.80484
  21
2.74265
  31
0
  0
LINE
  8
0
  10
18.80484
  20
2.74265
  30
0
  11
18.55016
  21
3.02294
  31
0
  0
LINE
  8
0
  10
18.55016
  20
3.02294
  30
0
  11
18.32547
  21
3.31464
  31
0
  0
LINE
  8
0
  10
18.32547
  20
3.31464
  30
0
  11
18.13747
  21
3.61885
  31
0
  0
LINE
  8
0
  10
18.13747
  20
3.61885
  30
0
  11
18.03136
  21
3.94834
  31
0
  0
LINE
  8
0
  10
18.03136
  20
3.94834
  30
0
  11
17.94604
  21
4.28416
  31
0
  0
LINE
  8
0
  10
17.94604
  20
4.28416
  30
0
  11
17.82227
  21
4.60828
  31
0
  0
LINE
  8
0
  10
17.82227
  20
4.60828
  30
0
  11
17.74266
  21
4.76503
  31
0
  0
LINE
  8
0
  10
17.74266
  20
4.76503
  30
0
  11
17.64811
  21
4.91747
  31
0
  0
LINE
  8
0
  10
17.64811
  20
4.91747
  30
0
  11
17.53434
  21
5.06459
  31
0
  0
LINE
  8
0
  10
17.53434
  20
5.06459
  30
0
  11
17.46794
  21
5.13564
  31
0
  0
LINE
  8
0
  10
17.46794
  20
5.13564
  30
0
  11
17.39306
  21
5.20454
  31
0
  0
LINE
  8
0
  10
17.39306
  20
5.20454
  30
0
  11
17.30674
  21
5.27065
  31
0
  0
LINE
  8
0
  10
17.30674
  20
5.27065
  30
0
  11
17.20328
  21
5.33275
  31
0
  0
LINE
  8
0
  10
17.20328
  20
5.33275
  30
0
  11
17.06817
  21
5.38771
  31
0
  0
LINE
  8
0
  10
17.06817
  20
5.38771
  30
0
  11
16.75154
  21
5.40343
  31
0
  0
LINE
  8
0
  10
16.75154
  20
5.40343
  30
0
  11
16.18646
  21
5.30011
  31
0
  0
LINE
  8
0
  10
16.18646
  20
5.30011
  30
0
  11
15.6162
  21
5.23092
  31
0
  0
LINE
  8
0
  10
15.6162
  20
5.23092
  30
0
  11
15.31853
  21
5.12185
  31
0
  0
LINE
  8
0
  10
15.31853
  20
5.12185
  30
0
  11
15.20584
  21
5.02924
  31
0
  0
LINE
  8
0
  10
15.20584
  20
5.02924
  30
0
  11
15.1255
  21
4.93922
  31
0
  0
LINE
  8
0
  10
15.1255
  20
4.93922
  30
0
  11
15.06271
  21
4.85045
  31
0
  0
LINE
  8
0
  10
15.06271
  20
4.85045
  30
0
  11
15.01168
  21
4.76241
  31
0
  0
LINE
  8
0
  10
15.01168
  20
4.76241
  30
0
  11
14.96938
  21
4.67485
  31
0
  0
LINE
  8
0
  10
14.96938
  20
4.67485
  30
0
  11
14.90445
  21
4.50057
  31
0
  0
LINE
  8
0
  10
14.90445
  20
4.50057
  30
0
  11
14.85945
  21
4.32693
  31
0
  0
LINE
  8
0
  10
14.85945
  20
4.32693
  30
0
  11
14.82999
  21
4.1536
  31
0
  0
LINE
  8
0
  10
14.82999
  20
4.1536
  30
0
  11
14.80808
  21
3.80735
  31
0
  0
LINE
  8
0
  10
14.80808
  20
3.80735
  30
0
  11
14.82636
  21
3.46134
  31
0
  0
LINE
  8
0
  10
14.82636
  20
3.46134
  30
0
  11
14.82292
  21
3.11521
  31
0
  0
LINE
  8
0
  10
14.82292
  20
3.11521
  30
0
  11
14.73377
  21
2.76888
  31
0
  0
LINE
  8
0
  10
14.73377
  20
2.76888
  30
0
  11
14.60587
  21
2.42361
  31
0
  0
LINE
  8
0
  10
14.60587
  20
2.42361
  30
0
  11
14.44594
  21
2.08031
  31
0
  0
LINE
  8
0
  10
14.44594
  20
2.08031
  30
0
  11
14.25723
  21
1.73989
  31
0
  0
LINE
  8
0
  10
14.25723
  20
1.73989
  30
0
  11
14.04172
  21
1.40324
  31
0
  0
LINE
  8
0
  10
14.04172
  20
1.40324
  30
0
  11
13.80075
  21
1.07126
  31
0
  0
LINE
  8
0
  10
13.80075
  20
1.07126
  30
0
  11
13.53533
  21
0.74483
  31
0
  0
LINE
  8
0
  10
13.53533
  20
0.74483
  30
0
  11
13.24627
  21
0.42486
  31
0
  0
LINE
  8
0
  10
13.24627
  20
0.42486
  30
0
  11
12.93424
  21
0.11224
  31
0
  0
LINE
  8
0
  10
12.93424
  20
0.11224
  30
0
  11
11.77259
  21
0.30372
  31
0
  0
LINE
  8
0
  10
11.77259
  20
0.30372
  30
0
  11
11.5774
  21
0.69995
  31
0
  0
LINE
  8
0
  10
11.5774
  20
0.69995
  30
0
  11
11.40632
  21
1.09576
  31
0
  0
LINE
  8
0
  10
11.40632
  20
1.09576
  30
0
  11
11.25971
  21
1.4901
  31
0
  0
LINE
  8
0
  10
11.25971
  20
1.4901
  30
0
  11
11.13803
  21
1.88186
  31
0
  0
LINE
  8
0
  10
11.13803
  20
1.88186
  30
0
  11
11.04197
  21
2.26987
  31
0
  0
LINE
  8
0
  10
11.04197
  20
2.26987
  30
0
  11
10.9725
  21
2.65285
  31
0
  0
LINE
  8
0
  10
10.9725
  20
2.65285
  30
0
  11
10.93121
  21
3.02931
  31
0
  0
LINE
  8
0
  10
10.93121
  20
3.02931
  30
0
  11
10.92089
  21
3.39737
  31
0
  0
LINE
  8
0
  10
10.92089
  20
3.39737
  30
0
  11
10.9476
  21
3.75398
  31
0
  0
LINE
  8
0
  10
10.9476
  20
3.75398
  30
0
  11
11.05543
  21
4.08291
  31
0
  0
LINE
  8
0
  10
11.05543
  20
4.08291
  30
0
  11
11.18379
  21
4.40475
  31
0
  0
LINE
  8
0
  10
11.18379
  20
4.40475
  30
0
  11
11.27417
  21
4.73972
  31
0
  0
LINE
  8
0
  10
11.27417
  20
4.73972
  30
0
  11
11.30191
  21
4.91333
  31
0
  0
LINE
  8
0
  10
11.30191
  20
4.91333
  30
0
  11
11.31502
  21
5.09222
  31
0
  0
LINE
  8
0
  10
11.31502
  20
5.09222
  30
0
  11
11.30944
  21
5.27812
  31
0
  0
LINE
  8
0
  10
11.30944
  20
5.27812
  30
0
  11
11.29749
  21
5.37463
  31
0
  0
LINE
  8
0
  10
11.29749
  20
5.37463
  30
0
  11
11.27741
  21
5.47438
  31
0
  0
LINE
  8
0
  10
11.27741
  20
5.47438
  30
0
  11
11.24643
  21
5.57861
  31
0
  0
LINE
  8
0
  10
11.24643
  20
5.57861
  30
0
  11
11.19924
  21
5.68965
  31
0
  0
LINE
  8
0
  10
11.19924
  20
5.68965
  30
0
  11
11.12223
  21
5.81353
  31
0
  0
LINE
  8
0
  10
11.12223
  20
5.81353
  30
0
  11
10.87531
  21
6.01237
  31
0
  0
LINE
  8
0
  10
10.87531
  20
6.01237
  30
0
  11
10.35743
  21
6.26092
  31
0
  0
LINE
  8
0
  10
10.35743
  20
6.26092
  30
0
  11
9.8554
  21
6.54013
  31
0
  0
LINE
  8
0
  10
9.8554
  20
6.54013
  30
0
  11
9.55047
  21
6.62686
  31
0
  0
LINE
  8
0
  10
9.55047
  20
6.62686
  30
0
  11
9.40487
  21
6.61817
  31
0
  0
LINE
  8
0
  10
9.40487
  20
6.61817
  30
0
  11
9.28696
  21
6.59257
  31
0
  0
LINE
  8
0
  10
9.28696
  20
6.59257
  30
0
  11
9.18399
  21
6.55766
  31
0
  0
LINE
  8
0
  10
9.18399
  20
6.55766
  30
0
  11
9.09095
  21
6.51643
  31
0
  0
LINE
  8
0
  10
9.09095
  20
6.51643
  30
0
  11
9.00527
  21
6.47045
  31
0
  0
LINE
  8
0
  10
9.00527
  20
6.47045
  30
0
  11
8.8503
  21
6.36763
  31
0
  0
LINE
  8
0
  10
8.8503
  20
6.36763
  30
0
  11
8.71183
  21
6.2536
  31
0
  0
LINE
  8
0
  10
8.71183
  20
6.2536
  30
0
  11
8.58612
  21
6.13069
  31
0
  0
LINE
  8
0
  10
8.58612
  20
6.13069
  30
0
  11
8.36487
  21
5.86344
  31
0
  0
LINE
  8
0
  10
8.36487
  20
5.86344
  30
0
  11
8.17628
  21
5.57277
  31
0
  0
LINE
  8
0
  10
8.17628
  20
5.57277
  30
0
  11
7.97004
  21
5.29477
  31
0
  0
LINE
  8
0
  10
7.97004
  20
5.29477
  30
0
  11
7.69435
  21
5.06699
  31
0
  0
LINE
  8
0
  10
7.69435
  20
5.06699
  30
0
  11
7.38793
  21
4.86283
  31
0
  0
LINE
  8
0
  10
7.38793
  20
4.86283
  30
0
  11
7.05677
  21
4.6791
  31
0
  0
LINE
  8
0
  10
7.05677
  20
4.6791
  30
0
  11
6.704
  21
4.51461
  31
0
  0
LINE
  8
0
  10
6.704
  20
4.51461
  30
0
  11
6.33177
  21
4.36893
  31
0
  0
LINE
  8
0
  10
6.33177
  20
4.36893
  30
0
  11
5.94169
  21
4.24199
  31
0
  0
LINE
  8
0
  10
5.94169
  20
4.24199
  30
0
  11
5.53509
  21
4.13392
  31
0
  0
LINE
  8
0
  10
5.53509
  20
4.13392
  30
0
  11
5.11316
  21
4.04496
  31
0
  0
LINE
  8
0
  10
5.11316
  20
4.04496
  30
0
  11
4.67697
  21
3.97546
  31
0
  0
LINE
  8
0
  10
4.67697
  20
3.97546
  30
0
  11
3.84972
  21
4.81317
  31
0
  0
LINE
  8
0
  10
3.84972
  20
4.81317
  30
0
  11
3.92471
  21
5.24845
  31
0
  0
LINE
  8
0
  10
3.92471
  20
5.24845
  30
0
  11
4.01895
  21
5.66923
  31
0
  0
LINE
  8
0
  10
4.01895
  20
5.66923
  30
0
  11
4.13213
  21
6.07443
  31
0
  0
LINE
  8
0
  10
4.13213
  20
6.07443
  30
0
  11
4.26396
  21
6.46289
  31
0
  0
LINE
  8
0
  10
4.26396
  20
6.46289
  30
0
  11
4.41431
  21
6.83326
  31
0
  0
LINE
  8
0
  10
4.41431
  20
6.83326
  30
0
  11
4.58322
  21
7.18393
  31
0
  0
LINE
  8
0
  10
4.58322
  20
7.18393
  30
0
  11
4.7711
  21
7.51276
  31
0
  0
LINE
  8
0
  10
4.7711
  20
7.51276
  30
0
  11
4.97908
  21
7.81659
  31
0
  0
LINE
  8
0
  10
4.97908
  20
7.81659
  30
0
  11
5.21031
  21
8.0894
  31
0
  0
LINE
  8
0
  10
5.21031
  20
8.0894
  30
0
  11
5.49089
  21
8.29213
  31
0
  0
LINE
  8
0
  10
5.49089
  20
8.29213
  30
0
  11
5.7839
  21
8.47705
  31
0
  0
LINE
  8
0
  10
5.7839
  20
8.47705
  30
0
  11
6.05391
  21
8.69492
  31
0
  0
LINE
  8
0
  10
6.05391
  20
8.69492
  30
0
  11
6.17839
  21
8.81908
  31
0
  0
LINE
  8
0
  10
6.17839
  20
8.81908
  30
0
  11
6.29415
  21
8.9561
  31
0
  0
LINE
  8
0
  10
6.29415
  20
8.9561
  30
0
  11
6.39891
  21
9.10977
  31
0
  0
LINE
  8
0
  10
6.39891
  20
9.10977
  30
0
  11
6.44597
  21
9.19487
  31
0
  0
LINE
  8
0
  10
6.44597
  20
9.19487
  30
0
  11
6.48836
  21
9.28738
  31
0
  0
LINE
  8
0
  10
6.48836
  20
9.28738
  30
0
  11
6.52456
  21
9.38991
  31
0
  0
LINE
  8
0
  10
6.52456
  20
9.38991
  30
0
  11
6.55164
  21
9.50749
  31
0
  0
LINE
  8
0
  10
6.55164
  20
9.50749
  30
0
  11
6.56216
  21
9.65296
  31
0
  0
LINE
  8
0
  10
6.56216
  20
9.65296
  30
0
  11
6.47927
  21
9.95896
  31
0
  0
LINE
  8
0
  10
6.47927
  20
9.95896
  30
0
  11
6.20639
  21
10.46445
  31
0
  0
LINE
  8
0
  10
6.20639
  20
10.46445
  30
0
  11
5.96436
  21
10.98542
  31
0
  0
LINE
  8
0
  10
9.83365
  20
14.75048
  30
0
  11
19.66731
  21
14.75048
  31
0
  0
LINE
  8
0
  10
14.75048
  20
9.83365
  30
0
  11
14.75048
  21
19.66731
  31
0
  0
ENDSEC
  0
EOF
